<?xml version="1.0" encoding="UTF-8"?>
<svg id="Capa_2" data-name="Capa 2" xmlns="http://www.w3.org/2000/svg" viewBox="0 0 366.36 352.81">
  <defs>
    <style>
      .cls-1 {
        fill: #c4c4c5;
      }

      .cls-1, .cls-2, .cls-3, .cls-4, .cls-5, .cls-6, .cls-7, .cls-8, .cls-9, .cls-10, .cls-11, .cls-12, .cls-13, .cls-14, .cls-15 {
        fill-rule: evenodd;
      }

      .cls-2 {
        fill: #20201e;
      }

      .cls-3 {
        fill: #fff;
      }

      .cls-4 {
        fill: #c20e25;
      }

      .cls-5 {
        fill: #f6d935;
      }

      .cls-6 {
        fill: #e3dcc1;
      }

      .cls-7 {
        fill: #c4c4c4;
      }

      .cls-8 {
        fill: #c08c3a;
      }

      .cls-9 {
        fill: #e8b44d;
      }

      .cls-10 {
        fill: #76ad4a;
      }

      .cls-11 {
        fill: #686867;
      }

      .cls-12 {
        fill: #350b00;
      }

      .cls-13 {
        fill: #858584;
      }

      .cls-14 {
        fill: #a21225;
      }

      .cls-15 {
        fill: #e3be36;
      }
    </style>
  </defs>
  <g id="OBJECTS">
    <path class="cls-9" d="m358.37,182.38c-18.17,82.1-78.34,115.96-188.38,128.28C59.96,322.97-2.51,218.29.08,148.51,1.69,105.2,63.81,40.93,127.18,12.4c115.67-52.08,253.18,70.6,231.19,169.98Z"/>
    <path class="cls-6" d="m325.91,335.23c55.71-13.23-41.61-27.35-46.5-27.53-62.27-2.34-126.21-1.61-188.47,5.72-2.98.35-41.15,6.64-32.02,13.02,61.83,43.19,204.04,23.74,266.99,8.79Z"/>
    <g>
      <path class="cls-3" d="m219.3,45.59c-.63-.63-1.21-1.2-1.71-1.69-3.48-3.4-7.12-6.63-10.36-10.26-3.54-3.97-7.83-9.07-4.87-14.68,1.21-2.29,3.33-3.77,5.83-4.36,5.2-1.25,11.02,2.69,15.05,5.59,5.19,3.73,10.01,7.98,14.58,12.46,6.31,6.18,17.47,17.95,17.74,27.11.06,1.98-.25,3.95-.83,5.83.58.55,1.17,1.1,1.75,1.65,4.78-5.22,10.7-9.71,17.41-11.9,4.53-1.48,9.23-1.91,13.96-1.38,12.82,1.45,24.54,9.73,34.03,17.97.25.22.49.45.71.69,1.58,1.71,2.99,3.57,4.23,5.54,7.01,2.7,13.64,8.71,17.68,14.84,3.54,5.37,5.7,11.43,6.09,17.87.21,3.46-.1,6.91-.88,10.28,5.88,7.07,9.91,15.46,11.98,24.42,1.74,7.52,2.07,15.27,1.15,22.91,2.78,4.74,4.39,10.1,3.05,15.61-.78,3.21-2.58,5.98-5.52,7.59-1.54.85-3.2,1.27-4.9,1.34-3.23,6.63-7.32,12.84-12.01,18.53,5.59,5.24,9.7,11.64,11.13,19.37.24,1.28.39,2.57.46,3.87.16,2.8-.06,5.6-.62,8.35-3.9,19.06-23.98,34.31-39.88,43.61-14.71,8.61-30.62,15.22-46.79,20.57-19.11,6.33-38.79,10.92-58.66,14.07-19.95,3.16-40.16,4.89-60.36,4.81-17.22-.07-34.57-1.41-51.44-4.98-21.32-4.51-52.86-15.37-57.4-40-.24-1.28-.39-2.57-.46-3.87-.16-2.8.06-5.6.62-8.35,2.39-11.66,10.76-21.64,19.73-29.41-2.31-1.52-4.55-3.15-6.71-4.88-.49.59-.99,1.18-1.5,1.75-3.62,4.04-8.48,7.78-14.26,6.66-3.29-.64-5.85-2.72-7.57-5.54-5.23-8.55-1.58-19.26,2.56-27.64-4.25-8.05-6.96-16.82-7.81-25.91-.42-4.51-.37-9.07.16-13.57-1.18-2.32-2.1-4.75-2.74-7.27-1.59-6.23-1.39-12.69.33-18.87,1.92-6.88,6.19-14.36,11.73-19.08.84-2.39,1.82-4.73,2.89-7.03.14-.3.29-.59.46-.87,8.91-14.7,21.75-30.57,40.61-30.48,3.74.02,7.63.78,11.23,1.78,3.26.9,6.47,2.06,9.56,3.46l4.29-7.72c-2.6-4.57-3.48-10.02-3.39-15.23.15-8.53,3.12-17.45,7.43-24.77,4.82-8.19,12.02-15.55,21.09-18.84,5.17-1.88,10.66-2.27,16.05-1.18.2.04.39.1.58.17,2.18.83,4.15,2.08,5.84,3.69,6.8,6.49,8.5,18.29,7.57,27.25-1.8,17.38-12.58,34.11-29.73,39.56-1.89.6-3.87.84-5.84.79-1.83,3.53-3.66,7.07-5.5,10.6,1.21,1.85,2.17,3.84,2.8,5.97,1.55,5.24.77,10.48-1.56,15.29.32,1.28.6,2.57.87,3.86,1.17,5.43-.62,10.72-4.04,14.89,1.16,3.35,1.6,7.01,1.07,10.5-.8,5.27-3.9,10.25-7.88,13.79-.48,1.73-1.19,3.42-2.07,4.97-3.8,6.72-10.5,10.87-17.68,13.22-3.91,1.28-8.12,2.05-12.22,1.57-1.98,4.65-3.97,9.3-5.99,13.93-1.09,2.5-2.29,4.96-3.51,7.41-1.34,2.7-2.74,5.37-4.2,8.01,2.97,2.46,6.15,4.67,9.46,6.64,1.02.61,2.05,1.19,3.09,1.75,1.54-.97,3.1-1.92,4.67-2.84,7.19-4.21,14.66-7.93,22.3-11.26.31-1.13.66-2.25,1.04-3.35-4.04-3.31-7.49-7.35-10.36-11.7-1.29-1.95-1.63-4.28-.96-6.52.68-2.25,2.24-3.99,4.4-4.91,5.34-2.27,10.99-3.16,16.77-2.54.7.08,1.39.17,2.08.29.27-.22.53-.43.8-.65,1.75-1.38,3.59-2.65,5.49-3.83-.06-.33-.11-.67-.14-1.01-.58-5.39,2.05-10.42,5.82-14.1,3.57-3.48,8.28-5.96,13.15-7,.1-.02.2-.04.3-.06,1.56-6.38,4.38-12.29,8.63-17.38,6.44-7.71,15.23-12.35,24.99-14.36,6.84-1.41,21.43-5.18,24.19-12.46,1.75-4.61-1.74-10.7-4.29-14.38-1.82-2.63-3.46-5.37-4.87-8.24-3.82-7.76-5.86-16.47-4.22-25.09.8-4.19,2.48-8.24,4.94-11.74-2.66-2.75-5.48-6.12-6.44-9.53-.85-3.03-.32-6.22,1.85-8.57,4.04-4.38,10.2-2.93,14.64-.08,1.83,1.17,3.49,2.54,5.18,3.9,1.18.94,2.35,1.89,3.52,2.83,3.54-.27,6.9.53,10.24,1.82.1.04.21.08.31.12h0ZM42.66,188.78c.2.87.43,1.73.68,2.58.36-.54.72-1.09,1.08-1.63-.6-.3-1.18-.62-1.76-.95h0Zm201.03-20.07c.57.18,1.15.37,1.72.56,2.3.78,4.57,1.62,6.72,2.75,3.8,1.99,7.39,5.08,7.7,9.43.15.12.3.24.45.35,1.94,1.53,3.81,3.15,5.6,4.84,10.51.74,20.99,2.08,31.3,4.26,10.63,2.25,21.7,5.58,31.47,10.55,4.07-4.76,7.65-9.97,10.45-15.57-2.26-1.71-4.43-3.55-6.55-5.43-3.43-3.04-6.73-6.24-9.93-9.52-1.91-1.96-3.8-3.93-5.61-5.98-3.35-3.8-6.71-7.59-10.05-11.39-3.74,1.69-7.95,2.23-12.02,2.21-7.55-.04-15.2-1.94-20.87-7.17-1.31-1.21-2.5-2.61-3.49-4.1-4.87-2.15-9.35-5.94-11.72-10.72-1.57-3.16-2.27-6.78-2.19-10.32-4.54-2.92-7.85-7.39-8.4-12.94-.12-1.19-.24-2.39-.33-3.59-4.49-3.6-6.62-9.12-5.13-14.91.42-1.62.92-3.23,1.5-4.8l-5.79-5.78c-3.93,1.2-8.1,1.33-12.11.28-1.66-.44-3.28-1.03-4.84-1.74.13.34.26.66.38.95,2.35,5.72,5.37,11.14,7.94,16.76,5.9,12.87,10.1,27.29,1.24,40-2.58,3.69-5.77,6.88-9.36,9.58-3.37,2.53-7.06,4.62-10.87,6.41-6.72,3.16-13.81,5.34-20.68,8.11-.92.37-2.03.83-3.19,1.36,9-.57,18.05-.5,27.04.24,3.75-9.68,11.77-16.36,21.24-20.55,2.14-.95,4.49-.9,6.59.14,2.1,1.04,3.56,2.87,4.1,5.15,1.71,7.16.82,14.16-2.28,20.57h0Zm100.37-20.17c-.82-3.19-1.99-6.27-3.52-9.18-1.02,1.28-2.11,2.51-3.27,3.66.61.48,1.21.96,1.81,1.45,1.67,1.34,3.33,2.7,4.98,4.07Z"/>
      <path class="cls-12" d="m125.17,182.38c-.34-.86-.58-1.8-.69-2.81-.47-4.4,1.82-8.52,4.89-11.51,3.14-3.06,7.32-5.26,11.61-6.17.09-.02.18-.04.27-.05.65-.1,1.31-.18,1.97-.25,1.28-6.58,3.95-12.82,8.45-18.2,5.98-7.16,14.15-11.43,23.21-13.29,8.21-1.69,23.2-5.73,26.5-14.43,2.2-5.81-1.4-12.59-4.65-17.29-1.73-2.5-3.3-5.11-4.64-7.84-3.52-7.15-5.46-15.16-3.95-23.11.88-4.61,2.96-9.04,6.04-12.58-.07-.07-.14-.14-.21-.21-2.55-2.51-6.41-6.44-7.38-9.91-.55-1.97-.29-4.04,1.14-5.58,2.89-3.13,7.57-1.53,10.63.44,1.72,1.11,3.32,2.43,4.92,3.71,1.52,1.22,3.03,2.44,4.55,3.65.03,0,.06-.01.1-.02,3.47-.53,6.72.24,9.95,1.49,4.02,1.56,7.88,3.67,11.65,5.79-1.33-4.27-6.54-9.45-9.71-12.55-3.42-3.35-7.02-6.53-10.21-10.11-2.48-2.78-6.57-7.08-4.44-11.11.79-1.49,2.17-2.39,3.78-2.77,3.97-.95,9.39,2.87,12.47,5.09,5.04,3.63,9.78,7.8,14.21,12.15,5.52,5.41,16.56,16.97,16.8,24.95.07,2.27-.46,4.53-1.36,6.6,1.89,1.78,3.78,3.56,5.67,5.34,5.03-6.18,11.3-11.22,18.15-13.46,4.11-1.34,8.34-1.73,12.62-1.25,12.09,1.36,23.36,9.44,32.32,17.22.16.14.31.29.46.44,1.68,1.83,3.17,3.84,4.43,5.99,6.92,2.3,13.44,8.35,17.16,13.99,3.24,4.91,5.22,10.44,5.58,16.32.23,3.71-.2,7.37-1.19,10.89,6.11,6.91,10.28,15.29,12.37,24.32,1.75,7.55,1.99,15.29.95,22.9,2.76,4.38,4.45,9.25,3.26,14.17-.57,2.34-1.82,4.39-3.97,5.57-1.69.93-3.51,1.11-5.33.86-3.65,8.01-8.6,15.39-14.4,22.03-.02.02-.04.04-.06.07,6.29,5.19,10.96,11.64,12.43,19.62.21,1.15.35,2.31.42,3.47.14,2.53-.06,5.06-.56,7.54-3.69,18.02-23.39,32.75-38.38,41.53-14.49,8.48-30.27,15.03-46.18,20.3-18.94,6.28-38.47,10.83-58.17,13.95-19.77,3.14-39.83,4.85-59.85,4.77-16.97-.07-34.18-1.39-50.8-4.91-19.83-4.19-50.7-14.45-54.96-37.49-.21-1.15-.35-2.31-.42-3.47-.14-2.53.05-5.06.56-7.54,2.41-11.79,11.68-22.17,22-30.4-.16-.09-.32-.19-.47-.28-4.28-2.58-8.34-5.5-12.1-8.75-1.05,1.45-2.16,2.84-3.34,4.16-2.8,3.12-6.78,6.55-11.31,5.67-2.41-.47-4.23-2.04-5.49-4.09-4.81-7.86-.48-18.48,3.42-26.04-4.49-8.05-7.37-16.92-8.23-26.15-.43-4.63-.35-9.29.28-13.87-1.27-2.34-2.27-4.84-2.94-7.46-1.46-5.7-1.26-11.59.31-17.25,1.74-6.26,5.84-13.67,11.38-18.06.88-2.62,1.94-5.16,3.06-7.57.09-.2.19-.38.3-.56,8.26-13.63,20.35-29.05,37.9-28.96,3.42.02,7.12.76,10.4,1.66,4.02,1.11,8,2.65,11.71,4.56l6.64-11.95c-3.04-4.31-3.99-9.89-3.9-15.07.14-7.98,2.97-16.39,7-23.23,4.44-7.54,11.08-14.44,19.45-17.48,4.64-1.68,9.51-2.04,14.35-1.06.03,0,.05.01.08.02,1.79.68,3.39,1.7,4.78,3.03,6.04,5.77,7.43,16.74,6.61,24.65-1.67,16.11-11.61,31.82-27.55,36.88-2.17.69-4.48.8-6.72.5-2.45,4.72-4.89,9.44-7.34,14.16,1.54,2,2.75,4.2,3.46,6.6,1.44,4.86.49,9.65-1.88,14.03.44,1.62.79,3.25,1.14,4.89,1.1,5.1-1.05,9.98-4.61,13.57,1.47,3.29,2.14,7.11,1.6,10.68-.73,4.84-3.8,9.45-7.57,12.51-.4,1.78-1.1,3.59-2,5.17-3.4,6.01-9.51,9.67-15.92,11.77-4.22,1.38-8.87,2.15-13.15,1-2.3,5.42-4.61,10.84-6.97,16.23-1.07,2.45-2.25,4.87-3.44,7.26-1.7,3.42-3.49,6.8-5.39,10.12,3.65,3.25,7.64,6.13,11.86,8.64,1.59.95,3.21,1.84,4.86,2.68,2.08-1.35,4.13-2.61,6.1-3.76,7.5-4.39,15.34-8.26,23.37-11.7.55-2.28,1.27-4.52,2.14-6.71-4.47-3.26-8.3-7.53-11.49-12.36-.78-1.17-.97-2.53-.57-3.87.41-1.35,1.31-2.36,2.61-2.92,4.85-2.06,9.96-2.87,15.2-2.31,1.12.12,2.22.3,3.31.53.63-.56,1.26-1.07,1.86-1.55,2.24-1.76,4.67-3.37,7.21-4.83h0Zm-76.04,6c-3.87-1.46-7.46-3.71-10.73-6.38.01.16.03.31.04.46.52,5.52,1.93,10.88,4.09,15.94,1.06-1.68,2.15-3.35,3.24-5.01,1.11-1.68,2.23-3.35,3.36-5.02h0Zm127.61-21.13c.74-.09,1.49-.17,2.24-.25,12.35-1.34,24.88-1.44,37.25-.25,2.99-10.03,10.84-16.83,20.34-21.03,1.29-.57,2.65-.54,3.91.08,1.27.63,2.11,1.69,2.44,3.06,1.89,7.94.2,15.33-3.89,21.76,1.82.49,3.61,1.03,5.38,1.62,2.14.72,4.26,1.5,6.27,2.56,3.09,1.62,6.55,4.25,5.97,8.17.6.45,1.17.89,1.7,1.3,2.14,1.69,4.22,3.51,6.21,5.43,10.76.71,21.5,2.05,32,4.27,9.77,2.07,22.22,5.6,32.84,11.41.24-.26.48-.53.71-.8,5.24-5.92,9.72-12.53,12.98-19.73-2.96-2.06-5.77-4.42-8.43-6.78-3.38-2.99-6.62-6.14-9.77-9.37-1.87-1.92-3.72-3.85-5.5-5.86-3.9-4.42-7.81-8.83-11.7-13.26-3.71,2.35-8.32,3.03-12.72,3.01-6.74-.04-13.68-1.66-18.76-6.34-1.34-1.24-2.56-2.73-3.49-4.31-4.52-1.76-8.86-5.21-11.03-9.59-1.61-3.23-2.14-7.07-1.74-10.66-4.49-2.34-8.02-6.31-8.54-11.51-.16-1.65-.33-3.29-.41-4.95-4.24-2.77-6.43-7.4-5.14-12.45.53-2.08,1.25-4.22,2.13-6.36l-8.66-8.64c-3.86,1.58-8.08,1.93-12.13.86-3.64-.95-7.11-2.79-10.34-4.95-.03,2.77,1.3,6.27,2.17,8.41,2.36,5.76,5.4,11.22,7.99,16.87,5.39,11.75,9.65,25.23,1.52,36.89-2.39,3.42-5.34,6.36-8.67,8.86-3.2,2.4-6.71,4.38-10.32,6.08-6.66,3.14-13.7,5.29-20.52,8.03-4,1.61-9.7,4.1-12.02,7.91-.1.16-.19.32-.27.48h0Zm171.8-10.6c-.18-2.61-.56-5.21-1.15-7.79-1.26-5.47-3.48-10.65-6.62-15.23-2.54,3.95-5.35,7.12-8.39,9.53,1.58,1.25,3.16,2.5,4.74,3.76,3.9,3.13,7.75,6.33,11.42,9.73Z"/>
      <g>
        <path class="cls-12" d="m302.3,115.14c-2.89.15-5.36-2.06-5.51-4.95-.15-2.89,2.06-5.36,4.95-5.51,16.64-.89,30.74,4.67,40.89,14.27,7.64,7.22,13,16.7,15.48,27.43,2.45,10.6,2.09,22.4-1.69,34.38-6.49,20.61-23.1,41.81-52.87,58.22-2.54,1.39-5.72.46-7.11-2.08-1.39-2.54-.46-5.72,2.08-7.11,27.13-14.95,42.14-33.91,47.9-52.17,3.19-10.14,3.52-20.04,1.48-28.87-2.01-8.7-6.33-16.37-12.48-22.18-8.14-7.69-19.55-12.14-33.13-11.42Z"/>
        <g>
          <path class="cls-12" d="m319.56,130.64c.09.03.17.07.26.11,1.09.51,1.82,1.42,2.06,2.6.43,2.03-.79,3.78-2.48,4.36l-10.15,5.42c-1.47.78-3.2.53-4.38-.65l-65.43-65.31c-3.81,1.63-8.02,2.05-12.12.98-5.99-1.57-11.56-5.62-16.32-9.45-5.67-4.57-11.48-9.35-16.67-14.45-2.43-2.39-6.3-6.33-7.25-9.68-.5-1.79-.28-3.67,1.02-5.08,2.7-2.92,7.15-1.28,9.96.52,1.67,1.07,3.32,2.43,4.87,3.67,2.1,1.68,4.19,3.38,6.31,5.04,2.48,1.94,5.12,3.99,7.82,5.61,2.83,1.69,6.71,3.68,10.03,4.07.74.09,2.4.17,2.96-.51.69-.84.25-2.9-.03-3.8-1.33-4.38-6.64-9.67-9.87-12.83-3.39-3.32-7.03-6.55-10.18-10.08-2.3-2.58-6.34-6.77-4.36-10.52.72-1.35,1.98-2.16,3.44-2.51,3.76-.9,9.15,2.92,12.04,5,4.98,3.58,9.77,7.81,14.15,12.1,5.32,5.21,16.41,16.78,16.64,24.59.07,2.31-.5,4.61-1.47,6.71,18.57,17.5,37.16,35.02,55.97,52.27,3.48,3.19,6.97,6.4,10.52,9.51.77.68,1.76,1.61,2.65,2.29Z"/>
          <path class="cls-13" d="m245.76,67.29c72.87,68.64,72.48,66.83,72.48,66.83l-10.74,5.74-67.34-67.22c-3.39,2.07-7.56,3.06-11.89,1.92-5-1.31-9.98-4.76-14.93-8.75-14.46-11.65-21.71-18.82-22.67-22.24-.73-2.61,2.23-2.45,5.39-.43,3.43,2.2,12.91,10.68,19.1,14.38,14.72,8.81,20.98,3.88,18.43-4.51-2.5-8.22-14.55-17.25-20.83-24.3-3.95-4.44-5.04-6.41-2.84-6.94,5.58-1.34,37.93,27.46,38.26,38.19.07,2.37-.82,4.96-2.41,7.32Z"/>
          <path class="cls-12" d="m316.39,81.71c-6.71,6.12-13.57,13.58-19.04,20.78-5.85,7.69-14.24,20.46-10.15,30.5,1,2.45,2.64,4.48,4.75,6.06,20.06,15,39.45,12.61,51.25-10.74,5.55-10.98,5.01-23.01-1.77-33.3-4.38-6.64-12.8-13.97-21.06-14.66-1.51-.12-2.85.33-3.97,1.35Z"/>
          <path class="cls-1" d="m319.93,85.58c9.86.82,29.59,18.57,18.58,40.36-11.01,21.79-27.4,20.89-43.42,8.91-16.02-11.98,24.84-49.27,24.84-49.27Z"/>
          <path class="cls-12" d="m251.5,104.96c.08,1.97.29,3.95.42,5.19.51,5.16,4.12,9.04,8.58,11.26-.47,3.67.07,7.55,1.65,10.73,2.11,4.24,6.37,7.67,10.93,9.41.95,1.65,2.22,3.18,3.48,4.35,4.97,4.59,11.8,6.16,18.4,6.2,5.57.03,11.53-1.08,15.4-5.44,1.26-1.41,2.15-3.02,2.79-4.79.1-.28.19-.56.27-.84,2.67-1.1,5.4-3.05,7.21-4.57,11.97-9.99,5.84-26.02,6.58-28.03,4.02-10.82,1.16-24.1-7.34-33.32-.14-.15-.26-.27-.42-.4-11.88-10.32-27.96-21.26-44.44-15.87-13.73,4.49-25.17,20.45-28.67,34.11-1.31,5.12,1.14,9.52,5.14,12.03Z"/>
          <path class="cls-3" d="m316.02,78.66c11.91,12.92,17.43,27.99,11.47,40.38-5.96,12.39-15.42,17.44-17.65,17.58-2.23.14.68,10.32-14.86,10.23-15.55-.09-18.11-9.61-18.11-9.61,0,0-7.15-1.63-10.03-7.43-2.88-5.79.02-11.74.02-11.74,0,0-9.06-1.67-9.73-8.43-.67-6.76-.29-8.01-.29-8.01,0,0-6.83-1.81-5.4-7.38,3.47-13.56,14.51-26.93,25.22-30.43,13.02-4.26,26.64,3.8,39.37,14.85Z"/>
          <path class="cls-1" d="m329.87,106.59c.26,4.32-.48,8.52-2.37,12.45-5.96,12.39-15.42,17.44-17.65,17.58-2.23.14.68,10.32-14.86,10.23-15.55-.09-18.11-9.61-18.11-9.61,0,0-7.15-1.63-10.03-7.43-2.88-5.79.02-11.74.02-11.74,0,0-9.06-1.67-9.73-8.43-.67-6.76-.29-8.01-.29-8.01,0,0-6.83-1.81-5.4-7.38,1.57-6.14,4.69-12.23,8.63-17.39.32,7.78,8.14,8.51,8.14,8.51,0,0-.23,11.44,8.45,16.38,1.09.62-5.18,10.68,8.84,18.88,0,0,1.39,9.55,18.6,3.65,12.7-4.35,21.87-10.93,25.76-17.67Z"/>
          <path class="cls-12" d="m317.8,131.84c.37-.22.86-.09,1.07.29.22.37.09.85-.28,1.07-8.56,4.99-25.03,2.07-25.08,2.07-.43-.07-.71-.48-.64-.91.07-.43.48-.71.91-.64.05,0,15.97,2.83,24.02-1.87Z"/>
          <path class="cls-12" d="m278.44,143.22c.15.41-.06.86-.47,1.01-.41.15-.86-.06-1.01-.46-1.51-4.09-.78-8.75,1-13.02,2.28-5.48,6.31-10.34,9.5-12.4.36-.24.85-.13,1.09.23.24.36.13.85-.23,1.08-2.97,1.93-6.75,6.5-8.91,11.69-1.64,3.94-2.33,8.21-.97,11.88Z"/>
          <path class="cls-12" d="m264.77,127.57c-.02.43-.39.77-.83.74-.43-.02-.77-.39-.74-.83.27-5.33,1.87-11.06,4.77-15.61,2.53-3.98,6.04-7.07,10.51-8.23.42-.11.85.14.96.57s-.14.85-.57.96c-4.04,1.05-7.25,3.88-9.58,7.55-2.75,4.32-4.27,9.78-4.53,14.85Z"/>
          <path class="cls-12" d="m254.8,108.33c-.1.42-.52.68-.95.58-.42-.1-.68-.52-.58-.95,1.26-5.29,3.66-10.19,6.25-14.17,3.66-5.64,7.8-9.5,9.69-10.12.41-.13.86.09.99.51.13.41-.09.86-.51.99-1.64.54-5.39,4.14-8.86,9.47-2.5,3.85-4.82,8.57-6.04,13.68Z"/>
          <path class="cls-12" d="m321.24,135.15c5.19,4.05,10.41,8.06,15.54,12.18,4.68,3.76,9.34,7.64,13.63,11.84,5.99,5.84,14.11,14.91,11.89,24.04-.53,2.19-1.7,4.13-3.72,5.24-3.85,2.12-8.55.08-11.99-1.93-4.11-2.4-8.07-5.66-11.63-8.82-3.36-2.98-6.6-6.12-9.74-9.34-1.86-1.9-3.72-3.85-5.48-5.84-7.69-8.71-12.11-13.65-19.71-22.44-.78-.9-3.89-3.77-3.65-4.94.24-1.17,4.3-.81,5.49-.75,14.94.73,14.43-2.7,16.96-.78,2.05,1.56.92.4,2.4,1.55Z"/>
          <path class="cls-13" d="m316.33,136.22c22.88,18.41,45.65,32.64,42.38,46.11-3.27,13.47-32.8-18.48-36.15-22.27-3.35-3.79-18.54-22.73-18.54-22.73,3.76.35,11.47-1.65,12.31-1.1Z"/>
          <path class="cls-3" d="m329.75,111.24c2.47,3.85,6.98,6.18,11.47,7.07,2.77-13.55-5.62-24.7-13.66-29.78,1.21,3.98,1.68,8.11,1.36,12.13.92,3.59,1.23,7.14.83,10.58Z"/>
          <path class="cls-12" d="m304.98,136.21c-.31-.31-.31-.8,0-1.11.31-.31.8-.31,1.11,0,2.95,2.93,6.27,6.31,9.74,9.83,16.85,17.12,38.7,38.71,42.69,35.52.34-.27.83-.21,1.11.12.27.34.22.83-.12,1.11-5.1,4.07-27.49-18.07-44.79-35.65-3.4-3.46-6.67-6.78-9.72-9.81Z"/>
          <path class="cls-12" d="m220.97,64.13c-.37-.22-.5-.7-.29-1.07.22-.38.7-.5,1.07-.29.69.39,1.24.73,1.77,1.06,3.64,2.22,6.41,3.91,11.31.33.33-.24.62-.49.89-.75,1.78-1.73,2.38-4,2.05-6.5-.34-2.61-1.67-5.46-3.71-8.24-.85-1.16-1.82-2.31-2.89-3.41-6.81-7.01-23.93-23.19-23.98-23.24-.32-.3-.33-.79-.03-1.11s.79-.33,1.11-.03c.05.05,17.2,16.25,24.03,23.29,1.13,1.16,2.15,2.36,3.03,3.57,2.19,2.99,3.62,6.09,4,8.97.39,2.98-.34,5.72-2.52,7.83-.32.32-.67.61-1.05.89-5.75,4.21-8.92,2.28-13.06-.25-.59-.36-1.2-.73-1.74-1.04Z"/>
          <path class="cls-11" d="m322.56,160.06c1.98,2.25,13.17,14.39,22.63,21.1,3.63,2.58,7.01,4.35,9.52,4.46,1.98.09,3.41-.87,4-3.29.02-.09.04-.18.06-.27-.71.21-1.62.12-2.69-.22-2.37-.76-5.55-2.78-9.23-5.63-8.55-6.61-19.78-17.67-29.73-27.75-.81-.82-1.61-1.63-2.4-2.44-.78-.8-1.56-1.59-2.33-2.37-.28-.28-.56-.57-.83-.85-.19-.2-.39-.39-.58-.59-.87-.88-1.73-1.76-2.58-2.61-.05-.05-.1-.1-.14-.14-.72-.73-1.43-1.44-2.13-2.14-.38.02-.75.04-1.1.03-.35,0-.68-.01-.98-.04,0,0,1.42,1.77,3.48,4.33.03.03.05.06.08.1.4.5.82,1.02,1.27,1.57.67.83,1.37,1.7,2.1,2.61.63.78,1.27,1.57,1.92,2.38,3.97,4.91,8.12,9.98,9.68,11.75Z"/>
          <path class="cls-7" d="m349.11,162.83c-5.57-5.44-13-11.19-21.05-17.41-1.53-1.18-3.08-2.38-4.65-3.6-1.57-1.22-3.14-2.46-4.73-3.71-.03-.02-.06-.04-.09-.07-.76-.6-1.51-1.2-2.27-1.81-.23-.15-1-.11-2.07.03-.28.04-.58.08-.9.12.08.06.17.13.27.21.68.53,1.77,1.39,3.18,2.51.03.03.06.05.09.08,1.2.96,2.63,2.1,4.22,3.4,1.46,1.19,3.06,2.5,4.75,3.9,7.15,5.94,15.94,13.54,22.87,20.48,3.58,3.58,6.66,6.99,8.78,9.91.56.78,1.06,1.52,1.47,2.22-.08-1.42-.41-2.85-.98-4.29-1.51-3.86-4.67-7.82-8.91-11.97Z"/>
          <path class="cls-7" d="m248.17,59.97c-.31-10.32-30.25-37.35-37.5-38.22,10.28,8.71,32.41,26.84,33.87,35.34.64,3.71.25,6.18-.41,7.79-1.16,2.84-.91,2.9.32,5.22l8.37,8.06c.55-.88,1.12-1.76,1.72-2.61-2.8-2.63-5.72-5.38-8.78-8.26,1.59-2.36,2.48-4.95,2.41-7.32Z"/>
        </g>
        <path class="cls-12" d="m216.45,182.75c-1.28-4.15-1.17-9.73-.24-13.9,2.45-10.95,10.59-18.24,20.55-22.65,1.15-.51,2.34-.48,3.47.08,1.12.56,1.87,1.49,2.16,2.71,2.44,10.24-1.2,19.51-8.2,26.96-3.19,3.4-7.77,7.06-11.96,9.23-1.11.58-2.3.62-3.46.14-1.16-.49-1.96-1.37-2.33-2.57Z"/>
        <path class="cls-10" d="m238.42,149.93c4.73,19.83-18.06,31.62-18.06,31.62,0,0-6.39-20.8,18.06-31.62Z"/>
        <path class="cls-12" d="m236.54,152.5c.27-.34.76-.4,1.1-.13.34.27.4.76.13,1.1-10.12,12.88-15.55,23.8-15.57,23.83-.19.39-.67.55-1.05.35-.39-.19-.55-.67-.35-1.05.02-.03,5.51-11.08,15.74-24.09Z"/>
        <path class="cls-12" d="m65.69,125.6c2.61-.81,5.32.77,6.04,3.55.73,2.77-.8,5.68-3.42,6.49-12.27,3.85-21.08,11.86-26,21.83-3.71,7.52-5.24,16.18-4.41,25.06.84,8.99,4.12,18.2,10.01,26.69,10.61,15.28,29.65,28.11,58.25,33.13,2.67.46,4.46,3.14,3.99,6-.47,2.85-3.02,4.79-5.69,4.33-31.39-5.51-52.52-19.93-64.49-37.17-6.95-10.01-10.82-21-11.83-31.81-1.02-10.93.89-21.65,5.5-31,6.13-12.42,16.99-22.37,32.04-27.09Z"/>
        <path class="cls-12" d="m185.96,194.36c19.72-3.13,39.8-4.84,59.77-4.76,16.87.07,34.17,1.4,50.7,4.9,19.47,4.12,50.34,14.25,54.55,37.07.21,1.13.34,2.26.41,3.41,1.21,21.42-22.38,39.04-38.69,48.59-14.4,8.43-30.27,15.01-46.08,20.26-18.88,6.26-38.44,10.82-58.08,13.93-19.72,3.13-39.8,4.85-59.77,4.76-16.87-.07-34.17-1.4-50.7-4.9-19.47-4.12-50.34-14.25-54.55-37.07-.21-1.13-.34-2.26-.41-3.41-1.21-21.42,22.38-39.04,38.69-48.59,14.4-8.43,30.27-15.01,46.08-20.26,18.88-6.26,38.44-10.82,58.08-13.93Z"/>
        <path class="cls-3" d="m186.6,198.4c82.68-13.12,154.48,2.07,160.35,33.91,5.88,31.84-56.38,68.29-139.06,81.4-82.68,13.11-154.48-2.07-160.36-33.91-5.88-31.84,56.38-68.29,139.07-81.4Z"/>
        <path class="cls-12" d="m86.1,241.87c-7.1,5.62-17.08,14.17-21.68,23.43-4.5,9.05-3.8,18.86,10.09,27.34,11.58,7.07,32.67,12.07,57.94,14.02,23.96,1.84,51.67.93,78.58-3.58,21.95-3.67,43.19-9.95,61.61-17.48,19.68-8.05,36.12-17.53,46.74-26.82,6.34-5.54,10.41-10.56,12.62-15.09,2.16-4.44,2.51-8.4,1.46-11.95-1.44-4.84-5.51-8.98-11.24-12.52-5.82-3.61-13.33-6.59-21.52-9.07-12.12-3.67-29.41-5.46-49.12-5.58-20.58-.12-43.78,1.6-66.46,4.93-21.38,3.14-42.3,7.73-60.13,13.56-16.16,5.29-29.78,11.6-38.88,18.8h0Zm-23.09,22.74c4.75-9.55,14.9-18.26,22.12-23.97,9.25-7.32,23.04-13.72,39.37-19.06,17.93-5.87,38.93-10.47,60.4-13.62,22.76-3.35,46.04-5.07,66.7-4.95,19.85.12,37.3,1.93,49.57,5.65,8.31,2.52,15.95,5.55,21.89,9.23,6.04,3.74,10.36,8.17,11.92,13.42,1.17,3.92.79,8.27-1.55,13.08-2.29,4.71-6.49,9.89-13,15.59-10.75,9.39-27.34,18.97-47.18,27.09-18.53,7.58-39.88,13.89-61.94,17.58-27.03,4.53-54.87,5.44-78.97,3.59-25.5-1.96-46.84-7.04-58.63-14.24-14.83-9.06-15.54-19.61-10.68-29.38Z"/>
        <path class="cls-1" d="m69.48,265.35c-1.83,12.32,6.97,23.59,28.12,28.42,21.15,4.83,21.37,4.85,21.37,4.85,0,0,39.33,12.23,73,7.06,33.67-5.17,50.86-16.89,64.24-20.53,13.38-3.64,71.78-21.92,68.15-51.4s-53.83-14.53-53.83-14.53c0,0-198.19,42.53-201.05,46.12Z"/>
        <path class="cls-12" d="m155.43,279.99c2.07-2.1,5.09-3.2,8.06-2.65,4.52.84,7.22,5.19,6.03,9.72-1.07,4.19-6.71,5.57-10.29,6.16-4.91.8-10.21.86-15.1.77-9.18-.17-18.42-1.02-27.48-2.05-4.72-.54-9.42-1.25-14.05-2.17-10.94-2.18-32.32-7.52-34.51-20.25-2.06-11.94,13.55-22.18,22.57-27.45,4.16-2.43,9.29-1.21,11.44,2.71,2.15,3.92.52,9.09-3.64,11.52-2.41,1.41-4.82,2.76-7.14,4.33-1.13.76-5.54,3.97-5.63,5.41-.03.49,1.75,1.62,2.07,1.8,3.52,1.99,8.15,3.28,12.14,4.21,6.49,1.53,13.27,2.49,19.95,3.25,7.31.83,14.63,1.69,21.92,2.64,3.82.5,7.66,1.02,11.45,1.65.72.12,1.47.24,2.22.39Z"/>
        <path class="cls-8" d="m92.55,245.53c2.14-1.25,4.78-.63,5.89,1.4,1.11,2.02.27,4.67-1.87,5.93-6.59,3.85-22.3,12.22-11.05,18.57,6.21,3.5,17.65,6.13,33.55,7.94,37.7,4.28,38.04,5.37,38.03,5.42.62-2.33,3.01-3.88,5.34-3.45,2.33.43,3.72,2.68,3.1,5.01,0,.02-1.34,6.86-48.1,1.56-29.27-3.32-70.87-15.51-24.87-42.38Z"/>
        <path class="cls-12" d="m294.03,230.86c-3.54,1.73-7.85.25-9.59-3.28-1.73-3.54-.26-7.86,3.28-9.59,8.57-4.2,19.8-3.15,27.69,2.08,4.27,2.83,7.6,6.92,8.79,11.96,1.4,5.87-.37,11.5-3.82,16.3-13.01,18.1-53.12,27.92-73.39,32.14-3.88.81-7.68-1.7-8.48-5.58-.8-3.88,1.7-7.66,5.57-8.47,9-1.87,17.98-4.03,26.78-6.68,6.47-1.95,12.94-4.19,19.11-6.95,6.11-2.73,14.74-7.24,18.76-12.83.87-1.21,1.9-3.05,1.53-4.62-.33-1.38-1.63-2.57-2.76-3.32-3.74-2.48-9.37-3.16-13.47-1.16Z"/>
        <path class="cls-8" d="m292.4,227.52c-1.71.84-3.78.13-4.62-1.58-.84-1.71-.13-3.78,1.58-4.62,7.65-3.74,17.48-2.48,24,1.84,3.6,2.39,6.28,5.72,7.23,9.72.96,4.03.16,8.57-3.22,13.27-7.24,10.07-27.56,21.6-71.13,30.67-1.87.38-3.7-.82-4.08-2.69-.38-1.87.82-3.7,2.69-4.08,41.57-8.65,60.51-19.05,66.91-27.93,2.09-2.91,2.64-5.49,2.12-7.65-.52-2.18-2.13-4.1-4.32-5.56-4.7-3.12-11.74-4.05-17.16-1.4Z"/>
        <path class="cls-12" d="m109.96,223.87c11.54-3.21,23.49-5.9,35.19-8.44,18.41-4,36.99-7.55,55.61-10.38,11.07-1.68,22.21-3.12,33.37-4.11,10-.88,20.18-1.44,30.22-1.16,11.59.32,32.66,1.83,38.47,13.98.69,1.45,1.14,2.99,1.34,4.59.84,6.51.27,12.95-1.89,19.16-5.17,14.85-18.41,25.57-31.5,33.35-15.98,9.49-34.46,16.42-52.02,22.37-22.26,7.54-47.28,9.35-70.51,6.12-16.68-2.33-38.68-8.4-51.1-20.45-4.54-4.4-8.19-9.7-9.99-15.8-1.56-5.29-1.6-10.8-.1-16.11,3.09-10.92,12.1-19.24,22.61-23.03.1-.04.19-.06.29-.09Z"/>
        <path class="cls-8" d="m111.05,227.81c-19.48,7.02-29.96,29.82-11.06,48.17,18.9,18.35,72.12,28.74,117.45,13.39,45.34-15.35,87.21-35.2,82.67-70.49-4.54-35.29-162.17,1.44-189.06,8.93Z"/>
        <path class="cls-12" d="m146.79,194.71c-5.54-16.65-6.6-36.76,5.28-50.99,5.9-7.07,13.97-11.28,22.91-13.11,8.29-1.7,23.48-5.78,26.89-14.76,2.28-6.01-1.36-12.93-4.71-17.77-6.1-8.82-10.58-19.66-8.5-30.55,1.35-7.1,5.62-13.8,12.04-17.31,2.31-1.26,4.66-2.37,7.29-2.77,3.38-.52,6.54.25,9.68,1.46,4.52,1.75,9.11,4.37,13.34,6.74,1.63.91,2.32,2.86,1.64,4.59-.68,1.74-2.51,2.69-4.32,2.26-1.06-.25-2.92,0-4.04.37-3.91,1.3-6.23,5.04-7.61,8.71-1.13,3.02.71,7.95,1.86,10.75,2.35,5.73,5.41,11.25,8,16.89,5.31,11.58,9.57,24.9,1.57,36.37-2.36,3.38-5.26,6.27-8.55,8.74-3.17,2.38-6.65,4.34-10.23,6.03-6.69,3.15-13.66,5.27-20.49,8.02-4.1,1.65-9.87,4.19-12.27,8.12-.45.74-.79,1.53-1.01,2.36-1.28,4.82-.67,10.49.35,15.31,1.2,5.67,3.21,11.33,5.52,16.64,1.08,2.48,2.27,5.06,3.58,7.43.6,1.08.64,2.26.12,3.38-.52,1.11-1.46,1.84-2.67,2.07-5.42,1.04-12.01,1.43-17.47.98-5.56-.47-11.88-1.99-15.65-6.43-3.3-3.9-3.64-8.78-2.54-13.52Z"/>
        <path class="cls-9" d="m150.66,194.56c-10.5-30.21-.78-55,25.06-60.32,25.84-5.31,39.16-17.07,24.49-38.29-15.31-22.14-6.54-37.67,2.26-42.49,7.48-4.1,10.56-3.67,26.7,5.41,0,0-10.77-2.56-15.98,11.39-5.22,13.95,26.15,42.7,11.86,63.19s-48.72,17.9-53.1,34.45c-4.38,16.55,9.8,42.13,9.8,42.13,0,0-37.41,7.17-31.09-15.48Z"/>
        <path class="cls-12" d="m244.33,177.05c4.51.89,10.26,4.94,13.68,7.64,5.94,4.69,11.49,10.47,15.8,16.69,13.98,20.16,11.74,40.24-9.75,54.22-13.43,8.74-29.14,14.43-44.73,17.88-17.7,3.92-36.85,5.33-54.93,3.77-12.53-1.08-29.52-4.13-39.82-11.82-9.13-6.82-16.17-16.11-19.07-27.23-4.67-17.96,2.75-35.24,14.99-48.33,24.96-26.7,91.94-25.91,123.82-12.81Z"/>
        <path class="cls-9" d="m243.18,181c-31.38-13.14-96.52-13.12-119.69,11.65-23.17,24.78-18.41,53.1,3.54,69.5,21.95,16.39,92.64,17.46,134.8-9.98,42.16-27.44-7.49-69.63-18.65-71.17Z"/>
        <path class="cls-8" d="m243.18,181c-11.75-4.92-28.23-7.99-45.47-8.62-28.43,2.04-72.03,22.07-74.89,34.09.62,10.47,7.43,20.51,14.65,21.88,7.23,1.37,12.51,1.07,19.76-4.72,7.25-5.79,10.19-11.16,20.64-4.62,10.45,6.54,16.44,14.92,25.65,11.59,9.21-3.33,7.37-19.86,15.17-18.65,7.8,1.21,26.08,9.74,32.81,1.55,6.73-8.19-1.97-22.36-1.97-22.36l6.37-2.91c-5.25-4.22-10.08-6.88-12.73-7.25Z"/>
        <path class="cls-12" d="m148.28,200.61c.39-.19.86-.03,1.05.36.19.39.03.86-.36,1.05-13.16,6.46-21.59,14.34-25.87,22.51-3.17,6.06-4.06,12.28-2.89,18.21,1.17,5.94,4.4,11.6,9.46,16.5,7.9,7.66,20.25,13.49,36.15,15.72.43.06.73.46.67.89-.06.43-.46.73-.89.67-16.25-2.28-28.89-8.26-37.02-16.15-5.29-5.13-8.68-11.07-9.91-17.33-1.24-6.27-.3-12.85,3.04-19.24,4.43-8.46,13.09-16.57,26.57-23.19Z"/>
        <path class="cls-12" d="m177.14,200.53c.4-.18.86,0,1.04.4.18.4,0,.86-.4,1.04-15.27,6.76-26.32,16.54-31.51,26.72-2.81,5.51-3.89,11.13-2.99,16.44.9,5.3,3.79,10.31,8.93,14.61,8.99,7.52,24.81,12.86,48.84,13.84.43.02.77.38.75.82-.02.43-.38.77-.82.75-24.41-.99-40.55-6.48-49.79-14.2-5.45-4.55-8.51-9.89-9.47-15.55-.96-5.65.18-11.6,3.14-17.42,5.34-10.5,16.66-20.54,32.27-27.45Z"/>
        <path class="cls-12" d="m220.52,203.36c-.42-.11-.67-.54-.56-.96.11-.42.54-.67.96-.56,12.38,3.24,20.49,8.22,25.3,14.07,4.33,5.25,5.99,11.2,5.69,17.23-.29,5.98-2.52,12.03-5.99,17.55-5.79,9.21-15.04,16.98-24.52,20.49-.41.15-.86-.06-1.01-.46-.15-.41.06-.86.46-1.01,9.16-3.4,18.12-10.92,23.73-19.85,3.33-5.3,5.47-11.09,5.75-16.79.28-5.65-1.28-11.22-5.33-16.15-4.61-5.6-12.45-10.39-24.48-13.54Z"/>
        <path class="cls-12" d="m233.78,187.53c-.4-.17-.59-.63-.42-1.03.17-.4.63-.59,1.03-.42,15.14,6.42,26.05,17.19,31.33,28.87,2.11,4.68,3.32,9.5,3.54,14.26.22,4.77-.56,9.47-2.42,13.87-3.25,7.68-9.81,14.44-20.14,19.1-.4.18-.86,0-1.04-.39-.18-.4,0-.86.39-1.04,9.94-4.49,16.23-10.96,19.34-18.29,1.77-4.18,2.51-8.65,2.3-13.18-.21-4.55-1.37-9.19-3.41-13.69-5.12-11.33-15.74-21.8-30.51-28.07Z"/>
        <path class="cls-12" d="m105.58,230.07c.25-.35.74-.44,1.09-.19.36.25.44.74.19,1.09-3.89,5.54-5.43,11.93-4.7,18.37.52,4.61,2.21,9.26,5.03,13.64,2.83,4.4,6.81,8.54,11.9,12.11,12.95,9.09,33.07,14.54,59.86,11.5,57.57-6.53,82.04-31.89,91.68-41.88.91-.94,1.68-1.74,2.36-2.4.31-.3.81-.3,1.11.02.3.31.29.81-.02,1.11-.64.62-1.42,1.43-2.33,2.37-9.75,10.1-34.5,35.75-92.64,42.34-27.21,3.08-47.7-2.48-60.93-11.77-5.26-3.69-9.38-7.98-12.32-12.54-2.95-4.59-4.72-9.46-5.27-14.32-.77-6.82.85-13.58,4.97-19.45Z"/>
        <path class="cls-12" d="m249.27,280.5c-.32.3-.81.28-1.11-.03-.3-.32-.28-.81.03-1.11,3-2.82,6.53-5.91,10.3-9.21,8.31-7.28,17.8-15.59,25.16-24.12,11.83-13.72,18.15-28.05,4.83-39.54-.33-.28-.37-.78-.08-1.11s.78-.37,1.11-.08c14.26,12.3,7.73,27.38-4.67,41.75-7.43,8.62-16.96,16.96-25.31,24.27-3.77,3.3-7.3,6.39-10.26,9.18Z"/>
        <path class="cls-12" d="m129.38,208.18c-1.07-.62-7.28-.88-8.49-.94-3.98-.2-8.74-1.32-10.23-5.55-1.96-5.56,3.72-11,7.62-14.06,5.84-4.59,13.21-8.26,20.17-10.79,25.02-9.12,53.06-12.18,79.52-9.39,8.67.91,17.99,2.51,26.26,5.3,4.15,1.4,12.87,4.5,11.86,10.28-.3,1.72-1.42,3.04-2.92,3.86-2.37,1.3-4.83,2.17-7.45,2.78-.15.03-.31.07-.49.1.1.12.18.23.25.32,2.03,2.54,3.58,5.6,4.23,8.8.65,3.18.4,6.55-1.29,9.39-4.61,7.73-15.24,5.8-22.24,3.28-1.52-.55-10.19-3.67-11.74-2.56-.67.47-1.74,2.42-2.17,3.13-1.68,2.79-3.38,5.21-5.66,7.56-2.66,2.75-5.84,4.75-9.76,4.85-4.67.13-9-2.55-12.85-4.89-4.62-2.8-8.91-5.33-14.11-6.99-11.46-3.66-17.81,11.02-27.29,10.38-3.23-.22-5.72-2.2-7.55-4.74-1.72-2.39-3.16-4.81-4.39-7.49-.23-.49-.93-2.22-1.27-2.63Z"/>
        <path class="cls-4" d="m139.84,180.67c-20.52,7.54-34.4,21.72-18.75,22.49,15.65.77,9.17,1.52,17.26,12.75,8.09,11.24,16.15-12.45,32.77-7.15,16.62,5.31,23.08,17.83,32.54,8.07,9.46-9.76,4.04-16.27,23.89-9.13,19.86,7.14,21.62-6.43,14.72-15.07-6.9-8.64,0-4.43,8.91-9.33,8.91-4.9-51.36-24.45-111.35-2.64Z"/>
        <path class="cls-12" d="m183.33,231.57c.84,1.18.56,2.82-.63,3.65-1.18.84-2.82.56-3.65-.63-1.15-1.63-2.65-2.93-4.24-3.72-1.27-.62-2.58-.91-3.79-.75-1.11.14-2.18.7-3.09,1.76-.96,1.12-1.75,2.79-2.27,5.09-.32,1.41-1.72,2.3-3.13,1.98-1.41-.32-2.3-1.72-1.98-3.13.72-3.2,1.91-5.6,3.39-7.34,1.82-2.13,4.04-3.25,6.4-3.56,2.26-.29,4.6.19,6.77,1.25,2.38,1.17,4.57,3.06,6.22,5.38Z"/>
        <path class="cls-12" d="m234.31,223.37c.49,1.36-.22,2.86-1.58,3.34-1.36.49-2.86-.22-3.34-1.58-.64-1.8-1.67-3.03-2.87-3.72-.93-.54-2.01-.74-3.1-.63-1.15.12-2.33.6-3.41,1.44-1.79,1.39-3.3,3.76-4.06,7.11-.32,1.41-1.72,2.3-3.13,1.98-1.41-.32-2.3-1.72-1.98-3.13,1.05-4.63,3.28-8,5.96-10.09,1.88-1.46,3.98-2.31,6.09-2.53,2.16-.22,4.31.21,6.23,1.31,2.24,1.28,4.11,3.45,5.2,6.5Z"/>
        <path class="cls-12" d="m185.31,246.36c-.79-1.21-.44-2.83.77-3.62,1.21-.79,2.83-.44,3.62.77,1.88,2.89,4.55,4.54,7.35,5.08,1.44.28,2.93.27,4.35,0,1.43-.28,2.8-.83,4.03-1.62,2.41-1.57,4.28-4.12,4.94-7.53.27-1.42,1.65-2.35,3.07-2.08,1.42.27,2.35,1.65,2.08,3.07-.95,4.91-3.7,8.62-7.24,10.92-1.81,1.17-3.81,1.98-5.89,2.38-2.08.41-4.23.42-6.33.01-4.12-.8-8.02-3.19-10.74-7.38Z"/>
        <path class="cls-12" d="m154.76,171.81c-.14.41-.58.63-1,.5-.41-.14-.63-.58-.5-1l.09-.26c8.12-23.86,11.21-32.95,36.91-34.57,12.14-.77,16.56-5.38,17.37-11.07.83-5.84-2-12.93-4.31-18.27-.17-.4.01-.86.41-1.03.4-.17.86.01,1.03.41,2.38,5.52,5.31,12.85,4.42,19.11-.91,6.41-5.71,11.59-18.83,12.42-24.64,1.56-27.64,10.37-35.52,33.5l-.09.26Z"/>
        <path class="cls-12" d="m217.54,49.12c.4-.16.86.04,1.02.44.16.4-.04.86-.44,1.02-7.06,2.82-13.33,6.62-16.64,12.27-3.29,5.62-3.7,13.14.9,23.48,2.28,5.14,4.6,9.82,6.72,14.09,6.63,13.37,11.26,22.71,7.21,31.17-3.28,6.85-8.09,7.97-15.9,9.8-4.89,1.14-11,2.57-18.68,5.93-19,8.33-14.07,22.95-14.06,22.99.13.41-.09.86-.51.99-.41.13-.86-.09-.99-.51-.01-.05-5.39-16.01,14.92-24.91,7.81-3.42,14-4.87,18.95-6.03,7.35-1.72,11.89-2.78,14.84-8.94,3.72-7.77-.77-16.83-7.2-29.79-2.11-4.25-4.42-8.92-6.75-14.15-4.83-10.88-4.36-18.88-.81-24.91,3.52-6,10.06-9.99,17.41-12.93Z"/>
        <path class="cls-12" d="m211.55,148.3c-.33.28-.83.25-1.11-.08-.28-.33-.25-.83.08-1.11,6.2-5.3,10.99-12.27,12.41-20.1,1.2-6.63-.01-13.89-4.86-21.29-6.34-9.69-9.95-17.71-11.46-24.4-1.53-6.79-.9-12.22,1.27-16.65,3.84-7.85,15.88-11.9,15.91-11.92.41-.14.86.08,1,.49.14.41-.08.86-.49,1-.03.01-11.45,3.86-15.01,11.12-2.02,4.12-2.59,9.21-1.15,15.61,1.47,6.5,5.02,14.35,11.25,23.88,5.08,7.78,6.36,15.43,5.09,22.43-1.49,8.21-6.49,15.5-12.94,21.01Z"/>
        <path class="cls-12" d="m136.58,216.03c.3-.31.8-.31,1.11,0,.31.31.31.8,0,1.11-2.26,2.3-3.95,4.8-5.12,7.43-2.43,5.46-2.65,11.46-1.12,17.24,1.54,5.8,4.85,11.37,9.45,15.9,3.15,3.1,6.9,5.72,11.11,7.59,19.73,8.79,33.14,7.87,33.18,7.87.43-.03.8.31.83.74.02.43-.31.81-.74.83-.04,0-13.81.94-33.9-8.01-4.39-1.95-8.3-4.68-11.57-7.9-4.8-4.73-8.25-10.54-9.87-16.62-1.62-6.11-1.38-12.48,1.2-18.28,1.25-2.8,3.04-5.47,5.44-7.9Z"/>
        <path class="cls-12" d="m232.93,269.37c-.38.2-.86.06-1.06-.33-.2-.38-.06-.86.33-1.06,9.58-5.06,17.61-13.01,22.3-21.94,4.37-8.3,5.83-17.45,2.95-25.89-6.02-17.64-10.61-20.49-10.62-20.5-.36-.24-.46-.72-.23-1.09.24-.36.72-.46,1.09-.23.01,0,5.05,3.15,11.25,21.3,3.03,8.88,1.51,18.46-3.05,27.13-4.84,9.2-13.1,17.39-22.96,22.59Z"/>
        <g>
          <path class="cls-12" d="m97.79,191.02c10.92-4.64,21.89-2.32,31.49,4.06,4.39,2.92,9.37,7.36,12.58,11.62.75,1,1,2.17.71,3.39-.29,1.22-1.02,2.16-2.14,2.72-4.36,2.19-10.59,3.12-15.38,2.87-12.64-.67-22.3-8.38-29.08-18.64-.69-1.05-.87-2.23-.5-3.43.36-1.2,1.16-2.09,2.32-2.58Z"/>
          <path class="cls-10" d="m99.39,194.78c21.52-9.14,39.21,14.38,39.21,14.38,0,0-22.3,11.21-39.21-14.38Z"/>
          <path class="cls-12" d="m103.76,197.19c-.42-.1-.68-.52-.58-.95.1-.42.53-.68.95-.58,14.22,3.39,35.07,13.11,35.13,13.14.39.18.56.65.38,1.04-.18.39-.65.56-1.04.38-.06-.03-20.75-9.68-34.83-13.03Z"/>
        </g>
        <path class="cls-8" d="m195.83,258.37c5.84,1.77,12.25.48,14.73-1.7,2.48-2.18-3.82,18.13-14.73,1.7Z"/>
        <g>
          <g>
            <path class="cls-12" d="m169.46,172.65l50.57-3.6c2.78-.2,4.4,1.99,4.7,4.45.13,1.06.09,2.19-.01,3.26-.3,3.01-1.23,6.06-2.57,8.76-4.49,9.07-13.05,13.67-22.88,14.74-14.89,1.63-33.2-6.44-33.61-23.43-.05-2.18,1.62-4.02,3.8-4.17Z"/>
            <path class="cls-4" d="m169.75,176.72c.34,14.38,16.51,20.85,29.08,19.47,22.55-2.47,22.72-23.16,21.5-23.07l-50.57,3.6Z"/>
            <path class="cls-14" d="m196.15,193.48c10.74-.6,17.66-7.23,18.11-13.48.16-2.26-9.73-.45-19.74.28-4.83.35-10.41-.67-13.89-.45-4.14.27-4.66,1.4-4.36,2.74.86,3.8,9.78,11.47,19.87,10.91Z"/>
            <path class="cls-12" d="m185.56,181.03c.57.38.61,1.06.62,1.67,0,.53-.03,1.08-.12,1.61-.17,1.01-.58,2.13-1.56,2.62-.67.33-1.39.26-2.04-.05-.86-.41-1.57-1.08-1.66-2.08-.18-1.95,2.14-3.36,3.71-3.9.37-.13.73-.08,1.06.13Z"/>
            <path class="cls-5" d="m184.89,182.03c-2.27.78-4.13,2.7-1.92,3.75,2.21,1.05,2.1-3.63,1.92-3.75Z"/>
            <path class="cls-12" d="m192.02,182.14c.68,0,1.1.55,1.44,1.05.3.44.57.92.79,1.41.41.94.69,2.1.14,3.04-.37.64-1.02.98-1.74,1.08-.94.13-1.91-.04-2.53-.81-1.23-1.52-.07-3.98.94-5.3.23-.31.57-.47.95-.47Z"/>
            <path class="cls-5" d="m192.01,183.34c-1.46,1.9-1.95,4.53.47,4.19,2.42-.34-.25-4.19-.47-4.19Z"/>
            <path class="cls-12" d="m199.82,181.66c.68,0,1.1.55,1.44,1.05.3.44.57.92.79,1.41.41.94.7,2.1.14,3.04-.37.64-1.02.98-1.73,1.08-.94.13-1.91-.04-2.53-.81-1.23-1.52-.07-3.98.94-5.3.24-.31.57-.47.95-.47Z"/>
            <path class="cls-5" d="m199.82,182.86c-1.46,1.9-1.95,4.53.47,4.19,2.42-.34-.25-4.19-.47-4.19Z"/>
            <path class="cls-12" d="m205.78,180.24c.6-.34,1.22-.07,1.77.19.48.23.95.51,1.38.83.83.61,1.65,1.47,1.64,2.57,0,.74-.39,1.36-.96,1.8-.75.58-1.67.92-2.6.56-1.82-.71-2.04-3.41-1.82-5.06.05-.38.26-.69.59-.88Z"/>
            <path class="cls-5" d="m206.38,181.28c-.32,2.38.57,4.9,2.5,3.4,1.93-1.5-2.31-3.51-2.5-3.4Z"/>
          </g>
          <path class="cls-12" d="m168.54,175.76c-.4-.16-.6-.62-.44-1.02.16-.4.62-.6,1.02-.44.4.16.76.33,1.14.5,2.74,1.25,6.52,2.98,23.26,2.41,19-.64,27.89-5.82,27.92-5.83.38-.21.85-.08,1.07.29.21.38.08.85-.29,1.07-.03.02-9.26,5.38-28.64,6.04-17.1.58-21.08-1.24-23.96-2.56-.38-.17-.74-.34-1.07-.47Z"/>
        </g>
        <path class="cls-8" d="m208.15,80.97c1.47,6.5,5.02,14.35,11.25,23.88,5.08,7.78,6.36,15.43,5.09,22.43-.82,4.52-2.71,8.77-5.31,12.59,2.19-1.86,4.17-3.97,5.87-6.41,14.25-20.43-16.88-49.06-11.9-63.06.02-.04.03-.09.05-.13.47-1.25.98-2.36,1.52-3.36,1.8-3.29,3.95-5.3,6.04-6.5,4.35-2.5,8.43-1.53,8.43-1.53-.26-.14-.51-.29-.76-.43-2.35-1.31-4.41-2.44-6.24-3.38-.6.26-1.3.58-2.07.95-1.18.58-2.5,1.31-3.82,2.16-2.15,1.4-4.31,3.16-5.84,5.28-.44.6-.82,1.23-1.15,1.89-.23.47-.44.96-.64,1.46-1.48,3.85-1.79,8.49-.51,14.15Z"/>
        <path class="cls-8" d="m206.11,114.26c-1.59,10.09-13.22,16.46-30.38,19.99-15.55,3.2-25.27,13.45-28.25,27.69,2.96.08,5.93.62,8.33,2.01,6.58-18.59,11.49-26.01,34.46-27.46,12.14-.77,16.56-5.38,17.37-11.07.5-3.49-.31-7.42-1.54-11.15Z"/>
        <path class="cls-2" d="m206.14,114.7c-.88,4.7-3.94,8.58-8.74,11.73-5.31,3.49-12.74,6.09-21.66,7.93-7.63,1.57-13.86,4.84-18.56,9.45-4.83,4.73-8.06,10.87-9.58,18.03,1.53.05,3.06.22,4.52.57,1.29.31,2.51.76,3.62,1.39,3.28-9.25,6.16-15.73,11.07-20.08,4.94-4.38,11.93-6.6,23.44-7.33,6.05-.38,10.17-1.72,12.88-3.67,2.7-1.94,3.99-4.49,4.39-7.31.25-1.73.17-3.58-.12-5.45-.27-1.75-.73-3.52-1.28-5.25h0Zm-8.85,11.55c4.88-3.21,7.96-7.18,8.72-12,0-.04.03-.07.07-.08.05-.02.11.01.13.07.61,1.87,1.12,3.8,1.42,5.69.29,1.89.37,3.76.12,5.51-.41,2.87-1.73,5.47-4.48,7.45-2.74,1.97-6.9,3.32-12.99,3.71-11.46.72-18.41,2.93-23.31,7.28-4.9,4.34-7.77,10.83-11.06,20.12v.02c-.04.05-.1.07-.15.04-1.12-.65-2.37-1.11-3.68-1.43-1.48-.36-3.04-.53-4.6-.57h-.02c-.06-.01-.09-.07-.08-.13,1.52-7.25,4.78-13.47,9.66-18.26,4.73-4.64,10.99-7.93,18.67-9.51,8.89-1.83,16.3-4.42,21.58-7.89Z"/>
        <path class="cls-8" d="m129.94,242.2c-1.55-5.86-1.4-11.96.9-17.57-.47-.45-.94-.94-1.38-1.46-.34-.39-.67-.8-.99-1.22-.33-.43-.64-.88-.95-1.35-.23-.34-.45-.7-.66-1.05-.09-.15-.18-.3-.26-.46-.16.21-.32.42-.48.63-.42.57-.82,1.14-1.2,1.71-.45.69-.88,1.38-1.27,2.07-.19.34-.38.68-.56,1.02-.04.07-.07.14-.11.21-3.08,5.99-3.93,12.14-2.78,18,1.17,5.94,4.4,11.6,9.46,16.5,4.87,4.73,11.44,8.75,19.48,11.67,7.23,1.54,15.46,2.49,24.23,2.77-5.73-1.04-13.27-3.06-21.99-6.95-4.39-1.95-8.3-4.68-11.57-7.9-4.8-4.73-8.25-10.54-9.87-16.62Z"/>
        <path class="cls-8" d="m258.93,219.65c3.03,8.88,1.51,18.46-3.05,27.13-2.79,5.31-6.73,10.29-11.45,14.54,1.67-.71,3.33-1.45,4.95-2.22,8.03-4.36,13.26-10.16,16-16.63,1.77-4.18,2.51-8.65,2.3-13.18-.21-4.55-1.37-9.19-3.41-13.69-1.71-3.78-4.03-7.47-6.91-10.94-.23-.28-.47-.56-.71-.84-.22-.26-.45-.51-.67-.76-.84-.93-1.73-1.85-2.65-2.75.22.88.41,1.79.54,2.71.04.28.07.56.1.85.02.24.04.48.06.73.06.95.04,1.9-.06,2.84,1.5,3.02,3.18,7,4.96,12.21Z"/>
        <path class="cls-3" d="m125.89,260.93c-10.42-7.38-13.06-21.23-11.76-33.95,0-.02,0-.04,0-.05.06-.59.13-1.18.21-1.76.12-.87.25-1.73.4-2.59.34-1.96.78-3.87,1.28-5.7.26-.93.53-1.83.82-2.71-.89-.29-1.77-.62-2.62-.98-1.04-.44-2.06-.94-3.05-1.48-.4,1.04-.76,2.07-1.07,3.11-.5,1.65-.91,3.29-1.21,4.93-.29,1.59-.49,3.18-.6,4.76-.07,1.05-.1,2.1-.09,3.15,0,.44.02.88.04,1.32,0,.12.01.24.02.36.68,12.7,7.43,24.36,18.78,32.83,1.41,1.05,3.03,2.04,4.82,2.97-1.71-1.19-3.69-2.57-5.96-4.18Z"/>
        <path class="cls-3" d="m253.72,186.56c-.18.12-.36.23-.55.34-.46.25-.92.49-1.39.71.51.52,1.07,1.12,1.67,1.77.11.12.22.24.33.36,1.12,1.23,2.37,2.65,3.68,4.22,1.46,1.76,3,3.71,4.53,5.78.86,1.16,1.71,2.37,2.54,3.6.12.18.25.37.37.55.24.36.47.71.7,1.07,5.4,8.36,9.66,17.84,8.18,25.36-2.23,11.31-6.96,18.19-13.31,22.39-.27.29-.55.57-.84.86.75-.46,1.48-.92,2.21-1.4,2.06-1.34,3.89-2.71,5.53-4.11,1.25-1.24,2.33-2.37,3.28-3.35.63-.65,1.2-1.24,1.71-1.76,9.9-12.33,6.6-26.15-.8-37.61-.25-.38-.5-.76-.76-1.14-.12-.17-.23-.34-.35-.51-.9-1.3-1.85-2.56-2.83-3.78-1.62-2.01-3.33-3.92-5.08-5.69-1.54-1.56-3.1-3.01-4.64-4.34-1.41-1.21-2.81-2.33-4.15-3.32,0,0,0,0,0,0Z"/>
        <path class="cls-9" d="m238.83,270.91c-14.3,7.5-33.65,14.28-59.71,17.23-3.62.41-7.11.67-10.49.78-2.94.1-5.79.09-8.54,0-14.7-.56-26.8-3.95-36.16-9.01-2.04-1.1-3.95-2.29-5.74-3.54-.7-.49-1.37-.99-2.03-1.5-4.3-3.33-7.73-7.08-10.29-11.04-2.11-3.28-3.62-6.71-4.51-10.17-.14-.53-.26-1.06-.36-1.59-.17-.85-.31-1.71-.4-2.56-.25-2.22-.25-4.44.01-6.63.06-.51.14-1.02.23-1.53.58-3.27,1.75-6.44,3.52-9.42-.03-.28-.06-.56-.08-.84-3.3,2.07-6.16,4.64-8.44,7.56-.19.48-.37.96-.53,1.44-.08.24-.16.48-.24.73-.43,1.35-.77,2.73-1.02,4.14-.32,1.79-.48,3.63-.48,5.49,0,1.32.08,2.65.25,3.99.18,1.36.44,2.73.81,4.1,1.3,4.83,3.83,9.64,7.84,14.1,1.63,1.81,3.5,3.56,5.63,5.23,3.07,2.41,6.68,4.65,10.88,6.67,4.03,1.94,8.69,3.54,13.8,4.82,8.29,2.07,17.78,3.28,27.7,3.64,28.38,1.03,60.34-4.87,78.24-17.33,1.02-.71,2-1.45,2.93-2.2.15-.12.3-.25.45-.37,1.43-1.16,2.78-2.26,4.06-3.31,2.38-1.94,4.5-3.67,6.4-5.22,3.96-3.23,6.91-5.66,9.13-7.48-2.27,1.39-4.6,2.7-6.98,3.93-2.04,1.5-4.25,3.03-6.65,4.55-2.81,1.79-5.88,3.58-9.22,5.34Z"/>
        <path class="cls-9" d="m164.41,277.24c-12.53-1.08-29.53-4.13-39.82-11.82-5.95-4.44-11.01-9.93-14.62-16.29-.58-1.03-1.13-2.08-1.63-3.15-.14,1.73-.09,3.53.18,5.36,1.43,9.46,9.15,19.76,31.3,26.36,3.61,1.08,7.61,2.05,12.03,2.91,2.57.5,5.15.87,7.75,1.13,1.51.15,3.03.27,4.54.34,1.73.09,3.46.13,5.18.14,16.97.03,33.46-3.96,45.36-7.79-16.37,3.18-33.78,4.23-50.28,2.8Z"/>
        <path class="cls-9" d="m287.98,217.87c.08,1.51.07,3.08-.02,4.72-.06,1.03-.15,2.08-.28,3.15-.18,1.52-.44,3.08-.77,4.66-1.74,8.3-5.6,17.24-12.25,25.08,3.18-3.09,6.23-6.25,8.99-9.44,4.29-4.98,7.86-10.03,10.02-15.01.66-1.52,1.2-3.04,1.58-4.54.61-2.41.84-4.79.59-7.12-.13-1.23-.39-2.44-.79-3.64-.88-2.63-2.46-5.18-4.84-7.61-.71-.3-1.46-.58-2.24-.84-.89-.3-1.82-.58-2.79-.84.08.14.16.29.23.44,1.43,2.78,2.34,6.58,2.56,11Z"/>
        <g>
          <path class="cls-8" d="m158.39,256.47c-1.77.01-3.21-1.41-3.22-3.17-.01-1.77,1.4-3.21,3.17-3.22,1.77-.01,3.21,1.41,3.22,3.17.01,1.77-1.4,3.21-3.17,3.22Z"/>
          <path class="cls-8" d="m164.67,251.33c-1.16,0-2.12-.93-2.12-2.09,0-1.16.93-2.11,2.09-2.12,1.16,0,2.11.93,2.12,2.09,0,1.16-.92,2.12-2.09,2.12Z"/>
          <path class="cls-8" d="m166.21,261.78c-1.57.01-2.84-1.25-2.86-2.81-.01-1.56,1.25-2.84,2.81-2.86,1.57-.01,2.84,1.25,2.86,2.81.01,1.57-1.24,2.84-2.81,2.86Z"/>
        </g>
        <g>
          <path class="cls-8" d="m242.97,242.55c1.74-.28,2.94-1.91,2.66-3.66-.27-1.74-1.91-2.94-3.66-2.66-1.74.27-2.93,1.91-2.66,3.66.28,1.74,1.91,2.94,3.66,2.66Z"/>
          <path class="cls-8" d="m235.94,238.51c1.15-.18,1.93-1.26,1.75-2.41-.18-1.15-1.26-1.93-2.41-1.75-1.15.18-1.93,1.26-1.75,2.41.18,1.15,1.26,1.93,2.41,1.75Z"/>
          <path class="cls-8" d="m236.13,249.08c1.55-.24,2.6-1.69,2.36-3.24-.24-1.55-1.69-2.6-3.24-2.36-1.55.24-2.6,1.69-2.36,3.24.24,1.55,1.69,2.6,3.24,2.36Z"/>
        </g>
        <g>
          <path class="cls-14" d="m152.98,195.54c-.63-1.65-2.48-2.47-4.13-1.84-1.65.63-2.47,2.48-1.84,4.13.63,1.65,2.48,2.47,4.13,1.84,1.65-.63,2.47-2.48,1.84-4.13Z"/>
          <path class="cls-14" d="m150.49,203.26c-.42-1.09-1.63-1.63-2.72-1.21-1.09.41-1.63,1.63-1.22,2.72.42,1.09,1.63,1.63,2.72,1.22,1.09-.42,1.63-1.63,1.22-2.72Z"/>
          <path class="cls-14" d="m160.78,200.88c-.56-1.46-2.2-2.19-3.66-1.63-1.46.56-2.19,2.2-1.63,3.66s2.2,2.19,3.66,1.63c1.46-.56,2.19-2.2,1.63-3.66Z"/>
          <path class="cls-9" d="m190.68,205.75c-.42-1.09-1.63-1.63-2.72-1.21s-1.63,1.63-1.21,2.72c.42,1.09,1.63,1.63,2.72,1.21,1.09-.42,1.63-1.63,1.21-2.72Z"/>
          <path class="cls-9" d="m160.14,188.92c-.41-1.09-1.63-1.63-2.72-1.22-1.09.42-1.63,1.63-1.21,2.72.42,1.09,1.63,1.63,2.72,1.21,1.09-.42,1.63-1.63,1.21-2.72Z"/>
          <path class="cls-9" d="m239.76,182.86c-.42-1.09-1.63-1.63-2.72-1.21-1.09.42-1.63,1.63-1.21,2.72s1.63,1.63,2.72,1.21c1.09-.42,1.63-1.63,1.22-2.72Z"/>
          <path class="cls-9" d="m199.63,206.07c-.65-1.7-2.56-2.56-4.27-1.91-1.71.65-2.56,2.56-1.91,4.27.65,1.71,2.56,2.56,4.27,1.91,1.71-.65,2.56-2.56,1.91-4.27Z"/>
        </g>
        <g>
          <path class="cls-14" d="m235.51,190.4c.21-1.75-1.03-3.35-2.79-3.56-1.75-.21-3.35,1.03-3.56,2.78-.21,1.75,1.03,3.35,2.79,3.56,1.75.21,3.35-1.03,3.56-2.79Z"/>
          <path class="cls-14" d="m229.69,196.06c.14-1.16-.68-2.21-1.84-2.35-1.15-.14-2.21.68-2.35,1.83-.14,1.16.68,2.21,1.83,2.35,1.16.14,2.21-.68,2.35-1.84Z"/>
          <path class="cls-14" d="m239.9,198.78c.19-1.55-.91-2.97-2.47-3.16-1.55-.19-2.97.92-3.16,2.47-.19,1.55.91,2.97,2.47,3.16,1.55.19,2.97-.91,3.16-2.47Z"/>
        </g>
        <path class="cls-4" d="m168.17,193.89c12.78,3.67,18.99.12,29.5.17,10.5.06,20.81,3.9,20.81,3.9,0,0-38.49,14.25-50.3-4.07Z"/>
        <path class="cls-12" d="m172.84,196.1c-.43-.05-.74-.44-.69-.87.05-.43.44-.74.87-.7,2.51.28,5.53,0,9.14-.35,4.49-.43,9.88-.94,16.41-.58,7.39.41,10.55,1.38,13.27,2.23,1.61.5,3.05.94,5.17,1.18.43.05.74.44.69.87-.05.43-.44.74-.87.7-2.25-.25-3.77-.72-5.46-1.24-2.64-.81-5.7-1.76-12.9-2.16-6.41-.35-11.74.16-16.17.58-3.71.35-6.81.65-9.47.35Z"/>
        <g>
          <path class="cls-12" d="m77.77,175.99c0,.09-.02.18-.03.28-.19,1.19-.87,2.14-1.93,2.7-1.82.96-3.83.29-4.85-1.16l-8.02-8.3c-1.16-1.2-1.38-2.93-.58-4.39l44.94-80.88c-3.12-4.23-4.09-9.83-4-15.02.35-19.48,17.32-45.88,40.17-41.26,10.21,3.87,11.95,18.45,11.05,27.13-1.65,15.9-11.45,31.44-27.19,36.44-2.2.7-4.57.78-6.86.42-11.74,22.66-23.51,45.33-34.95,68.14-2.12,4.22-4.24,8.46-6.27,12.72-.44.92-1.07,2.13-1.47,3.18Z"/>
          <path class="cls-13" d="m118.5,87.67c-46.07,88.88-44.43,88.01-44.43,88.01l-8.46-8.76,46.21-83.17c-13.8-12.72,5.12-57.73,30.69-51.52,11.39,2.77,14.78,45.88-16.31,55.75-2.26.72-5,.57-7.7-.32Z"/>
          <path class="cls-12" d="m45.54,124.98c8.27,3.78,17.07,8.78,24.49,13.96,7.92,5.53,19.82,15.11,19,25.93-.2,2.64-1.14,5.07-2.67,7.22-14.5,20.42-33.7,24.08-52.08,5.46-8.64-8.76-11.81-20.38-8.51-32.24,2.14-7.66,7.91-17.22,15.57-20.4,1.4-.58,2.82-.55,4.19.07Z"/>
          <path class="cls-3" d="m43.36,129.75c-9.14,3.8-22.49,26.74-5.34,44.11,17.14,17.37,32.48,11.5,44.07-4.81,11.59-16.31-38.73-39.3-38.73-39.3Z"/>
          <path class="cls-1" d="m44.67,179.52c14.46,9.99,27.35,3.7,37.42-10.47,1.73-2.43,2.07-5.01,1.42-7.65-17.25-7.24-35.58-7.93-35.58-7.93,2.15,11.85,2.68,21.45-3.26,26.05Z"/>
          <path class="cls-12" d="m114.43,127.26c.53,1.9.93,3.85,1.19,5.07,1.09,5.07-1.16,9.87-4.72,13.34,1.57,3.35,2.24,7.21,1.71,10.72-.71,4.68-3.72,9.26-7.52,12.3-.4,1.86-1.14,3.71-1.99,5.21-3.33,5.89-9.35,9.48-15.62,11.53-5.29,1.74-11.3,2.5-16.33-.46-1.63-.96-2.97-2.22-4.13-3.71-.18-.23-.35-.47-.52-.72-2.87-.23-6.07-1.25-8.27-2.14-8.84-6.3-7.49-12.08-11.88-16.7-15.54-11.45-13.13-26.92-6.17-41.94.08-.18.17-.34.27-.51,8.15-13.45,20.12-28.8,37.45-28.71,14.37.07,48.81,14.46,36.52,36.73Z"/>
          <path class="cls-3" d="m44.96,121.96c-7.39,15.94-8.03,31.98,1.43,41.96,9.47,9.97,20.02,11.88,22.18,11.33,2.17-.55,2.51,10.03,17.28,5.19,14.77-4.84,14.3-14.7,14.3-14.7,0,0,6.31-3.74,7.28-10.14.97-6.4-3.62-11.17-3.62-11.17,0,0,8.11-4.36,6.68-11-1.43-6.64-2.17-7.72-2.17-7.72,14.01-16.85-17.07-29.87-30.43-29.93-13.7-.07-24.2,11.77-32.93,26.18Z"/>
          <path class="cls-1" d="m50.48,167.71c8.21,6.67,16.23,8.01,18.09,7.54,2.17-.55,2.51,10.03,17.28,5.19,14.77-4.84,14.3-14.7,14.3-14.7,0,0,6.31-3.74,7.28-10.14.97-6.4-3.62-11.17-3.62-11.17,0,0,8.11-4.36,6.68-11-1.43-6.64-2.17-7.72-2.17-7.72,8.16-9.82,1.02-18.33-9.01-23.75,1.32,5.5-.19,12.37-1.95,13.45-2.16,1.32,1.81,3.78-.89,9.96-2.71,6.18-4.84,9.3-4.84,9.3,0,0,2.18,6.5.11,10.97-2.07,4.46-4.77,6.62-4.77,6.62,0,0,0,6.04-8.15,6.91-7.99.86-21.33-.39-28.33,8.54Z"/>
          <path class="cls-12" d="m64.53,170.13c-.31.31-.8.3-1.11,0-.31-.31-.3-.81,0-1.11,9.3-9.2,21.75.08,21.79.11.35.26.43.75.17,1.1-.26.35-.75.43-1.1.17-.03-.02-11.42-8.51-19.75-.26Z"/>
          <path class="cls-12" d="m102.07,171.99c-.02.43-.39.77-.82.75-.43-.02-.77-.39-.75-.82.17-3.91-1.79-7.76-4.56-11-3.64-4.28-8.64-7.48-12.06-8.4-.42-.11-.67-.54-.56-.96s.54-.67.96-.56c3.67.99,9,4.38,12.85,8.9,2.99,3.52,5.12,7.74,4.93,12.09Z"/>
          <path class="cls-12" d="m109.49,153.28c.15.41-.05.86-.46,1.01-.41.15-.86-.05-1.01-.46-1.68-4.45-3.83-8.69-7.11-12.28-3.27-3.57-7.69-6.51-13.94-8.4-.41-.12-.65-.56-.52-.98.12-.41.56-.65.98-.53,6.55,1.97,11.19,5.07,14.64,8.84,3.44,3.76,5.67,8.16,7.42,12.78Z"/>
          <path class="cls-12" d="m113.37,131.29c.22.37.11.85-.26,1.08-.37.23-.85.11-1.08-.26-2.78-4.59-6.48-8.56-10.06-11.62-4.77-4.08-9.23-6.5-10.92-6.5-.43,0-.78-.36-.78-.79,0-.43.36-.78.79-.78,1.98,0,6.88,2.57,11.93,6.88,3.69,3.15,7.51,7.26,10.38,12Z"/>
          <path class="cls-12" d="m62.39,169.74c3.42-4.18,10.48-4.77,15.47-4.04,1.18.17,2.12.82,2.7,1.86.58,1.04.64,2.18.18,3.27-4.54,10.7-9.03,21.45-13.68,32.1-1.06,2.44-2.24,4.86-3.43,7.24-2,4.02-4.12,8-6.41,11.87-2.42,4.09-5.19,8.41-8.37,11.95-2.66,2.96-6.51,6.34-10.82,5.5-2.26-.44-3.96-1.92-5.14-3.85-4.9-8.01.06-19.13,3.97-26.53,2.81-5.3,6.06-10.43,9.36-15.44,3.62-5.5,7.37-10.91,11.07-16.35,1.64-2.42,3.28-4.84,4.88-7.29.07-.11.14-.21.23-.31Z"/>
          <path class="cls-13" d="m65.26,172.1c-16.15,24.53-36.45,49.8-29.21,61.62,7.23,11.82,25.57-27.63,27.6-32.27,2.02-4.63,13.67-32.07,13.67-32.07,0,0-8.78-1.29-12.05,2.71Z"/>
          <path class="cls-12" d="m65.9,172.56c-2.63,4-5.43,8.1-8.21,12.16-13.75,20.13-26.74,39.16-20.97,48.59.38.62.78,1.06,1.2,1.36,1.27.9,2.9.41,4.72-.96,2.02-1.54,4.22-4.14,6.39-7.22,6.53-9.26,12.77-22.76,13.9-25.35,1.76-4.03,11.16-26.16,13.25-31.09-2.31-.19-7.91-.33-10.28,2.51h0Zm-9.51,11.28c2.74-4,5.5-8.05,8.21-12.17h0s.03-.04.05-.07c3.41-4.16,11.96-3.1,12.71-3,.08,0,.17.03.25.06.4.17.59.63.42,1.03-.03.08-11.61,27.34-13.67,32.07-1.14,2.61-7.45,16.25-14.05,25.62-2.26,3.2-4.56,5.92-6.73,7.57-2.38,1.81-4.63,2.36-6.57.99-.59-.42-1.14-1.02-1.63-1.82-6.3-10.3,6.97-29.73,21.01-50.29Z"/>
          <path class="cls-12" d="m118.66,83.8c-.42-.12-.66-.55-.54-.97.12-.42.55-.66.97-.54,1.04.3,2.45.24,4.07-.16,3.31-.82,7.4-3.04,11.1-6.56,3.72-3.54,7.03-8.38,8.74-14.43,1.51-5.32,1.79-11.58.03-18.71-.1-.42.16-.85.58-.95.42-.1.85.15.95.58,1.83,7.42,1.53,13.95-.05,19.52-1.8,6.34-5.27,11.43-9.17,15.14-3.91,3.72-8.27,6.08-11.82,6.96-1.88.46-3.56.52-4.87.15Z"/>
          <path class="cls-12" d="m32.19,227.88c-.36-.24-.47-.72-.23-1.08.24-.36.72-.47,1.08-.23,2.29,1.48,4.91,2.19,7.92.7,3.18-1.57,6.81-5.52,10.97-13.38,8.51-16.04,22.88-46.95,22.92-47.04.18-.39.65-.56,1.04-.38.39.18.56.65.38,1.04-.04.09-14.45,31.07-22.96,47.11-4.34,8.19-8.21,12.34-11.67,14.05-3.62,1.79-6.75.96-9.47-.8Z"/>
          <path class="cls-12" d="m108.15,104.13c-.24.36-.73.45-1.09.2-.36-.25-.45-.73-.2-1.09,2.1-3.06,10.93-20.32,10.96-20.37.2-.39.67-.54,1.06-.34.39.2.54.67.34,1.06-.03.05-8.89,17.38-11.07,20.54Z"/>
          <path class="cls-11" d="m144.56,42.05c1.83,7.42,1.53,13.95-.05,19.52-1.8,6.34-5.27,11.43-9.17,15.14-3.91,3.72-8.27,6.08-11.82,6.96-1.69.42-3.23.5-4.47.24-1.08,2.1-7.32,14.23-10.07,18.89.39.34.77.69,1.15,1.04,2.6-5.03,5.38-10.41,8.37-16.17,2.7.88,5.44,1.03,7.7.31,31.1-9.88,27.71-52.98,16.31-55.75-5.5-1.34-10.7-.3-15.33,2.27,7.94-2.2,14.86.1,17.1,7.11.14.1.24.25.28.43Z"/>
          <path class="cls-11" d="m49.4,221.15c-2.68,3.86-5.17,6.17-7.47,7.39-.09.05-.19.1-.28.14-2.27,1.12-4.35,1.22-6.25.7.17,1.45.6,2.76,1.31,3.93.38.62.78,1.06,1.2,1.36,1.27.9,2.9.41,4.72-.96.71-.54,1.45-1.21,2.19-1.99,1.37-1.43,2.79-3.23,4.2-5.23.73-1.04,1.47-2.14,2.19-3.27,5.68-8.9,10.71-19.78,11.71-22.08.81-1.85,3.24-7.53,5.82-13.61.46-1.08.92-2.16,1.38-3.25.68-1.61,1.36-3.2,2.01-4.72.05-.1.09-.21.13-.31.03-.08.07-.15.1-.23.53-1.25,1.04-2.44,1.5-3.54,1.02-2.4,1.84-4.34,2.31-5.43-.3-.03-.66-.05-1.05-.07-.55,1.18-1.28,2.73-2.15,4.57-.52,1.1-1.09,2.31-1.7,3.6,0,.01-.01.02-.02.03-.44.92-.89,1.88-1.37,2.87-.34.71-.68,1.44-1.04,2.18-.79,1.66-1.62,3.4-2.48,5.17-4.33,9.01-9.28,19.08-13.06,26.21-1.35,2.55-2.66,4.71-3.92,6.52Z"/>
          <path class="cls-7" d="m114.42,82.77s-3.21-3.27-3.84-13.62c-.5-8.19,6.82-24.89,14.05-33.04-15.24,10.81-23.1,38.17-12.82,47.64l-8.34,15.02c.79.49,1.57,1,2.32,1.53l8.64-17.52Z"/>
        </g>
        <g>
          <path class="cls-12" d="m141.32,162.36c6.58-1,15.89-.81,18.79,6.57,2.24,5.71-1.11,12.1-5.2,16.03-4.83,4.64-11.6,7.09-18.23,5.33-5.41-1.44-11.02-4.63-11.68-10.78-.45-4.24,1.78-8.2,4.73-11.08,3.07-2.99,7.17-5.14,11.35-6.04.08-.02.15-.03.24-.04Z"/>
          <path class="cls-5" d="m141.93,166.4c-11.34,2.42-20.2,15.69-4.2,19.94,16,4.25,31.22-24.05,4.2-19.94Z"/>
          <path class="cls-12" d="m127.54,174.38c.1-.42.52-.69.94-.59.42.09.69.52.59.94-.16.7-.2,1.32-.15,1.88.1,1.06.56,1.89,1.3,2.53.78.68,1.87,1.15,3.16,1.44,1.72.39,3.78.45,5.92.25,3.36-.31,8.85-2.6,12.65-5.49,1.25-.96,2.31-1.98,3.03-3.01.66-.95,1.02-1.89.94-2.77-.05-.51-.24-1.01-.62-1.5-.26-.34-.2-.84.15-1.1.34-.26.84-.2,1.1.15.56.74.86,1.51.93,2.31.12,1.28-.34,2.56-1.21,3.81-.81,1.16-1.99,2.3-3.37,3.35-4.01,3.06-9.85,5.48-13.46,5.81-2.3.21-4.52.14-6.41-.28-1.53-.35-2.86-.93-3.84-1.79-1.04-.9-1.69-2.08-1.83-3.58-.07-.72-.01-1.5.18-2.36Z"/>
          <path class="cls-15" d="m143.56,181.44c-1.52.51-2.94.84-4.12.95-.56.05-1.12.09-1.67.1-.81.03-1.6.01-2.36-.04-.83-.06-1.63-.17-2.37-.34-.7-.16-1.36-.37-1.97-.63-.55-.24-1.05-.52-1.49-.85-.06-.04-.12-.09-.18-.13.02.06.05.12.07.19.18.45.43.89.74,1.32.49.68,1.15,1.33,1.99,1.92.41.29.86.57,1.36.83,1.14.61,2.53,1.14,4.18,1.58,2.3.61,4.59.55,6.74,0,1.22-.31,2.39-.77,3.49-1.35,3.83-2.02,6.86-5.47,8.12-8.89.05-.14.1-.28.15-.42.36-1.1.54-2.18.5-3.21-.14.25-.29.5-.46.74-.8,1.14-1.96,2.27-3.32,3.31-.02.01-.04.03-.05.04-.24.19-.49.37-.75.55-1.54,1.09-3.29,2.08-5.06,2.9-1.19.55-2.38,1.03-3.53,1.41Z"/>
        </g>
      </g>
    </g>
    <g>
      <g>
        <g>
          <path class="cls-12" d="m296.38,7.65c0-.58.47-1.05,1.05-1.05s1.05.47,1.05,1.05c0,3-.6,6.14-2.48,8.75-1.88,2.62-5,4.65-10.01,5.41-.57.08-1.11-.31-1.19-.89-.08-.57.31-1.11.89-1.19,4.37-.65,7.05-2.37,8.62-4.55,1.58-2.19,2.08-4.91,2.08-7.53Z"/>
          <path class="cls-12" d="m298.48,33.89c0,.58-.47,1.05-1.05,1.05s-1.05-.47-1.05-1.05c0-2.62-.51-5.34-2.08-7.53-1.57-2.19-4.25-3.9-8.62-4.55-.57-.08-.97-.62-.89-1.19.08-.57.62-.97,1.19-.89,5.01.75,8.13,2.79,10.01,5.41,1.88,2.61,2.48,5.75,2.48,8.75Z"/>
          <path class="cls-12" d="m296.38,7.65c0-.58.47-1.05,1.05-1.05s1.05.47,1.05,1.05c0,2.62.51,5.34,2.08,7.53,1.57,2.19,4.25,3.9,8.62,4.55.57.08.97.62.89,1.19-.08.57-.62.97-1.19.89-5.01-.75-8.13-2.79-10.01-5.41-1.88-2.61-2.48-5.75-2.48-8.75Z"/>
          <path class="cls-12" d="m298.48,33.89c0,.58-.47,1.05-1.05,1.05s-1.05-.47-1.05-1.05c0-3,.6-6.14,2.48-8.75,1.88-2.62,5-4.65,10.01-5.41.57-.08,1.11.31,1.19.89.08.57-.31,1.11-.89,1.19-4.37.66-7.05,2.37-8.62,4.55-1.58,2.19-2.08,4.91-2.08,7.53Z"/>
        </g>
        <path class="cls-3" d="m297.43,27.79c.36-.92.83-1.81,1.43-2.65,1.3-1.81,3.2-3.35,5.91-4.37-2.71-1.02-4.6-2.56-5.91-4.37-.6-.84-1.07-1.72-1.43-2.65-.36.92-.83,1.81-1.43,2.65-1.3,1.81-3.2,3.35-5.91,4.37,2.71,1.02,4.6,2.56,5.91,4.37.6.84,1.07,1.72,1.43,2.65Z"/>
      </g>
      <g>
        <g>
          <path class="cls-12" d="m70.27,51.82c0-.58.47-1.05,1.05-1.05s1.05.47,1.05,1.05c0,3-.6,6.14-2.48,8.75-1.88,2.62-5,4.65-10.01,5.41-.57.08-1.11-.31-1.19-.89-.08-.57.31-1.11.89-1.19,4.37-.65,7.05-2.37,8.62-4.55,1.58-2.19,2.08-4.91,2.08-7.53Z"/>
          <path class="cls-12" d="m72.37,78.06c0,.58-.47,1.05-1.05,1.05s-1.05-.47-1.05-1.05c0-2.62-.51-5.34-2.08-7.53-1.57-2.19-4.25-3.9-8.62-4.55-.57-.08-.97-.62-.89-1.19.08-.57.62-.97,1.19-.89,5.01.75,8.13,2.79,10.01,5.41,1.88,2.61,2.48,5.75,2.48,8.75Z"/>
          <path class="cls-12" d="m70.27,51.82c0-.58.47-1.05,1.05-1.05s1.05.47,1.05,1.05c0,2.62.51,5.34,2.08,7.53,1.57,2.19,4.25,3.9,8.62,4.55.57.08.97.62.89,1.19-.08.57-.62.97-1.19.89-5.01-.75-8.13-2.79-10.01-5.41-1.88-2.61-2.48-5.75-2.48-8.75Z"/>
          <path class="cls-12" d="m72.37,78.06c0,.58-.47,1.05-1.05,1.05s-1.05-.47-1.05-1.05c0-3,.6-6.14,2.48-8.75,1.88-2.62,5-4.66,10.01-5.41.57-.08,1.11.31,1.19.89.08.57-.31,1.11-.89,1.19-4.37.65-7.05,2.37-8.62,4.55-1.58,2.19-2.08,4.91-2.08,7.53Z"/>
        </g>
        <path class="cls-3" d="m71.32,71.95c.36-.92.83-1.81,1.43-2.65,1.3-1.81,3.2-3.35,5.91-4.37-2.71-1.02-4.6-2.56-5.91-4.37-.6-.84-1.07-1.72-1.43-2.65-.36.92-.83,1.81-1.43,2.65-1.3,1.81-3.2,3.35-5.91,4.37,2.71,1.02,4.6,2.56,5.91,4.37.6.84,1.07,1.72,1.43,2.65Z"/>
      </g>
      <path class="cls-12" d="m269.42,33.49c0-.35.28-.63.63-.63s.63.28.63.63c0,1.58.31,3.22,1.25,4.54.95,1.32,2.56,2.35,5.19,2.74h0s.06.01.09.02h0s.01,0,.01,0h0s.01,0,.01,0h0s.01,0,.01,0h0c.07.03.14.07.19.12h0s.01,0,.01,0h.01s0,.01,0,.01h0s0,.01,0,.01h0s0,.01,0,.01h0s0,.01,0,.01h0s0,.02,0,.02h0s.02.03.03.05h0s.01.02.02.03h0s0,.03,0,.03h0s0,.01,0,.01v.03s.01,0,.01,0h0s0,.01,0,.01h0s0,.02,0,.02h0s0,.02,0,.02h0c.02.06.03.11.03.17h0v.02h0v.02h0v.02h0c0,.07-.01.12-.03.18h0s0,0,0,0h0s0,.03,0,.03h0s0,.01,0,.01h0s0,0,0,0v.03s-.01,0-.01,0h0s0,.03,0,.03h0s0,.01,0,.01l-.02.03h0s-.02.03-.03.05h0s0,.01,0,.01h0s0,.01,0,.01h0s0,.01,0,.01h0s0,.01,0,.01h0s0,.01,0,.01h-.01s-.01.02-.01.02h0c-.05.05-.12.09-.19.12h0s-.01,0-.01,0h0s-.01,0-.01,0h0s-.01,0-.01,0h0s-.06.02-.09.02h0c-2.63.4-4.24,1.43-5.19,2.74-.95,1.32-1.25,2.96-1.25,4.54,0,.35-.28.63-.63.63s-.63-.28-.63-.63c0-1.58-.31-3.22-1.26-4.54-.95-1.32-2.56-2.35-5.19-2.74h0s-.06-.01-.09-.02h0s-.01,0-.01,0h0s-.01,0-.01,0h0s-.01,0-.01,0h0c-.07-.03-.14-.07-.19-.12h0s0-.01,0-.01h-.01s0-.02,0-.02h0s0-.01,0-.01h0s0-.01,0-.01h0s0-.01,0-.01h0s0-.01,0-.01h0s-.02-.03-.04-.05h0s-.02-.03-.02-.03h0s0-.03,0-.03h0s0-.01,0-.01h0s-.01-.03-.01-.03h0s0-.02,0-.02h0s0-.02,0-.02h0s0-.01,0-.01h0c-.02-.06-.03-.11-.03-.17h0s0-.02,0-.02h0v-.02h0s0-.02,0-.02h0c0-.07.01-.12.03-.18h0s0,0,0,0h0s0-.03,0-.03h0s0-.01,0-.01h0s0,0,0,0v-.03s.01,0,.01,0h0s0-.03,0-.03h0s.02-.04.02-.04h0s.02-.03.04-.05h0s0,0,0,0h0s0-.02,0-.02h0s0-.01,0-.01h0s0-.01,0-.01h0s0-.01,0-.01h0s.01-.01.01-.01h0s0,0,0,0c.06-.05.12-.09.19-.12h0s.01,0,.01,0h0s.01,0,.01,0h0s.01,0,.01,0h0s.06-.02.09-.02h0c2.63-.4,4.24-1.43,5.19-2.74.95-1.32,1.26-2.96,1.26-4.54h0Zm5.06,7.91h0c-.15-.06-.3-.12-.45-.18.14.06.29.12.45.18l-.08.03h0l-.08.03h0l-.07.03h0l-.07.03h0l-.07.03h0s-.07.03-.07.03h0l-.07.03h0l-.07.03h0s-.07.03-.07.03h0s-.07.03-.07.03h0l-.07.03h0s-.07.03-.07.03h0l-.07.03h0l-.07.03h0l-.07.04h0l-.07.04h0l-.06.04h0l-.06.04h0l-.06.04h0l-.06.04h0l-.06.04h0s-.06.04-.06.04h0s-.08.05-.12.08h0l-.06.04h0s-.07.05-.11.07h-.01s-.06.05-.06.05h0l-.06.04h0l-.06.04h0l-.06.04h0l-.05.04h0l-.06.04h0l-.05.04h0l-.05.04h0l-.05.04h0l-.05.04h0l-.05.04h0l-.05.04h0l-.05.04h0s-.05.04-.05.04h0s-.05.04-.05.04h0l-.05.05h0s-.05.05-.05.05h0l-.05.05-.05.05h0l-.05.05h0l-.05.05h0l-.05.05h0l-.04.05-.04.05h0s-.04.05-.04.05h0l-.04.05h0l-.04.05-.04.05-.04.05-.04.05h0s-.04.05-.04.05h0l-.04.05-.04.05-.04.05-.04.05-.04.05-.04.05-.02.02-.02.02-.02.02-.02.02-.02.02-.02.02-.02.02h0l-.02.02-.02.02h0l-.02.02h0l-.02.02-.02.02-.02.02h0l-.02.02h0v.02h-.01l-.02.02v.02s-.03.02-.03.02h0v.02h-.01v.02h-.01v.02h-.01v.02h-.01v.02h-.01v.02h-.01v.02s-.01,0-.01,0v.02h-.01v.02h-.01v.02h-.01v.02h-.01v.02h-.01v.02s-.01,0-.01,0v.02h-.01v.02h-.01v.03h-.01v.02h-.01v.02h-.01v.03h-.01v.02h-.01v.03h-.01v.03h-.01v.02s-.01,0-.01,0v.02s-.01,0-.01,0v.03h-.01v.02h-.01v.03h-.01v.03s-.01,0-.01,0v.03s-.01,0-.01,0l-.02.05h0s-.01.03-.01.03h0s-.01.03-.01.03h0l-.04.1h0s0,0,0,0l-.03.07h0s-.03.08-.03.08h0l-.03.08,4.43-4.23Zm-.45-.18c-.1-.04-.19-.09-.28-.13.09.04.19.09.28.13h0Zm-.56-.27s.09.05.13.07l-.13-.07Zm-.33-.18c-.06-.04-.12-.07-.19-.11.06.04.12.08.19.11h0Zm-.43-.27s.08.05.12.08l-.12-.08Zm-2.53-3s-.03-.07-.04-.1c.01.03.03.07.04.1h0Zm-.11-.26l-.03-.08c-.02.05-.04.1-.06.16.02-.05.04-.1.06-.16l.03.08h0Zm-2.64,3.22c-.16.11-.32.21-.49.31.17-.1.33-.2.49-.31h0l.06-.04h0l.06-.04h0l.06-.04h0s.06-.04.06-.04h0s.07-.06.11-.08h0l.05-.04h0l.05-.04h0l.05-.04h0l.05-.04h0l.05-.04h0l.05-.04h0l.05-.04h0l.05-.04h0l.05-.04h0l.05-.05h0l.05-.05h0l.05-.05.05-.05h0l.05-.05h0l.05-.05h0s.04-.05.04-.05h0s.04-.05.04-.05l.04-.05h0l.04-.05h0l.04-.05h0l.04-.05.04-.05.04-.05.04-.05h0l.04-.05h0l.04-.05.04-.05.04-.05.04-.05.04-.05.04-.05.02-.02.02-.02.02-.02h0l.02-.02.02-.02.02-.02.02-.02h0l.02-.02h0l.02-.02h0s.02-.02.02-.02h0l.02-.02.02-.02.02-.02h0v-.02h.01l.02-.02h0s.02-.02.02-.02l.02-.02v-.02h.01v-.02h.01v-.02h.01v-.02h.01v-.02s.01,0,.01,0v-.02h.01v-.02h.01v-.02h.01v-.02h.01v-.02h.01v-.02s.01,0,.01,0v-.02s.01,0,.01,0v-.02h.01v-.02h.01v-.03h.01v-.02h.01v-.02h.01v-.02s.01,0,.01,0v-.02s.01,0,.01,0v-.02s.01,0,.01,0v-.02h.01l.03-.05h0v-.03h.01v-.03h.01l.02-.05h0s.01-.03.01-.03h0v-.02s.01,0,.01,0v-.03s.01,0,.01,0l.05-.1h0c.03-.06.05-.12.08-.18l-2.55,3.14Zm-.55.34c-.06.04-.13.07-.2.11.07-.04.13-.07.2-.11h0Zm-.26.14c-.31.16-.65.31-1,.45h0c.36-.13.69-.28,1-.45h0Zm-.48.66s-.1-.04-.14-.06l.14.06Zm.28.13s-.09-.04-.14-.07l.14.07Zm.14.07s-.09-.05-.14-.07l.14.07Zm.13.07c.07.04.13.07.2.11-.06-.04-.13-.07-.2-.11h0Zm.38.22c.08.05.16.1.24.15-.08-.05-.16-.1-.24-.15h0Zm.24.15s.07.05.11.07c-.04-.02-.07-.05-.11-.07h0Zm2.54,2.94s.03.07.05.1c-.01-.03-.03-.07-.05-.1h0Zm.05.1c.03.06.05.12.08.18-.02-.06-.05-.12-.08-.18h0Zm.14.34c-.02-.05-.04-.1-.06-.16l.06.16Zm-.14-8.12c.03-.06.05-.12.08-.18l-.08.18Zm.08,7.97c.02.05.04.1.06.16l.03-.08-.09-.08Z"/>
      <path class="cls-12" d="m89.14,33.21c0-.35.28-.63.63-.63s.63.28.63.63c0,1.58.31,3.22,1.25,4.54.95,1.32,2.56,2.35,5.19,2.74h0s.06.01.09.02h0s.01,0,.01,0h0s.01,0,.01,0h0s.01,0,.01,0h0c.07.03.14.07.19.12h0s0,0,0,0h.01s0,.01,0,.01h0s0,.01,0,.01h0s0,.01,0,.01h0s0,.01,0,.01h0s0,.02,0,.02h0s0,0,0,0c.01.02.02.03.03.05h0s.01.02.02.03h0s0,.03,0,.03h0s.01.04.01.04h0s0,0,0,0h0s0,.01,0,.01h0s0,.03,0,.03h0c.02.06.03.12.03.18h0v.02h0v.02h0v.02h0c0,.07-.01.12-.03.18h0s0,0,0,0h0s0,.03,0,.03h0s0,.01,0,.01h0s0,0,0,0v.03s-.01,0-.01,0h0s0,.01,0,.01h0s0,.03,0,.03h0l-.02.03h0s-.02.03-.03.05h0s0,.01,0,.01h0s0,.01,0,.01h0s0,.01,0,.01h0s0,.01,0,.01h0s0,.01,0,.01h-.01s0,.02,0,.02h0c-.06.05-.12.09-.19.12h0s-.01,0-.01,0h0s-.01,0-.01,0h0s-.01,0-.01,0h0s-.06.02-.09.02h0c-2.63.4-4.24,1.43-5.19,2.74-.95,1.32-1.25,2.96-1.25,4.54,0,.35-.28.63-.63.63s-.63-.28-.63-.63c0-1.58-.31-3.22-1.26-4.54-.95-1.32-2.56-2.35-5.19-2.74h0s-.06-.01-.09-.02h0s-.01,0-.01,0h0s-.01,0-.01,0h0s-.01,0-.01,0h0c-.07-.03-.14-.07-.19-.12h0s-.01,0-.01,0h-.01s0-.01,0-.01h0s0-.01,0-.01h0s0-.01,0-.01h0s0-.01,0-.01h0s0-.02,0-.02h0s0,0,0,0c-.01-.02-.02-.03-.03-.05h0s-.02-.03-.02-.03h0s0-.03,0-.03h0s0-.01,0-.01h0s-.01-.03-.01-.03h0s0-.02,0-.02h0s0-.02,0-.02h0s0-.02,0-.02c-.02-.06-.03-.11-.03-.17h0v-.02h0v-.02h0v-.02h0c0-.07.01-.12.03-.18h0s0-.02,0-.02h0s0-.02,0-.02h0s0-.02,0-.02v-.03s.01,0,.01,0h0s0-.03,0-.03h0s.02-.04.02-.04h0s.02-.03.03-.05h0s0,0,0,0h0s0-.02,0-.02h0s0-.01,0-.01h0s0-.01,0-.01h0s0-.01,0-.01h0s.01-.01.01-.01h.01s0,0,0,0c.06-.05.12-.09.19-.12h0s.01,0,.01,0h0s.01,0,.01,0h0s.01,0,.01,0h0s.06-.02.09-.02h0c2.63-.4,4.24-1.43,5.19-2.74.95-1.32,1.26-2.96,1.26-4.54h0Zm5.06,7.91h0c-.15-.06-.3-.12-.45-.18.14.06.29.12.45.18l-.08.03h0l-.08.03h0l-.07.03h0l-.07.03h0l-.07.03h0l-.07.03h0l-.07.03h0l-.07.03h0s-.07.03-.07.03h0s-.07.03-.07.03h0l-.07.03h0s-.07.03-.07.03h0l-.07.03h0l-.07.03h0l-.07.04h0l-.07.04h0l-.07.04h0l-.06.04h0l-.06.04h0l-.06.04h0l-.06.04h0l-.06.04h0s-.08.05-.12.08h0l-.06.04h0s-.07.05-.11.07h-.01s-.06.05-.06.05h0l-.06.04h0l-.06.04h0l-.06.04h0l-.06.04h0l-.05.04h0l-.05.04h0l-.05.04h0l-.05.04h0l-.05.04h0l-.05.04h0l-.05.04h0l-.05.04h0s-.05.05-.05.05h0l-.05.04h0l-.05.04h0s-.05.05-.05.05h0l-.05.05-.05.05h0l-.05.05h0l-.05.05h0l-.04.05h0l-.04.05-.04.05h0s-.04.05-.04.05h0l-.04.05h0l-.04.05-.04.05-.04.05-.04.05h0s-.04.05-.04.05h0l-.04.05-.04.05-.04.05-.04.05-.04.05-.04.05-.02.02-.02.02-.02.02-.02.02-.02.02-.02.02-.02.02h0l-.02.02-.02.02h0l-.02.02h0l-.02.02-.02.02-.02.02h0l-.02.02h0l-.02.02h0l-.02.02v.02s-.03.02-.03.02h0l-.02.02h0s-.01.02-.01.02h0v.02h-.01v.02h-.01v.02h-.01v.02h-.01v.02s-.01,0-.01,0v.02h-.01v.03h-.01v.02h-.01v.02h-.01v.02h-.01v.02s-.01,0-.01,0v.02h-.01v.02s-.01,0-.01,0v.02h-.01v.02h-.01v.02s-.01,0-.01,0v.02h-.01v.02h-.01v.03h-.01v.03h-.01v.02s-.01,0-.01,0v.02s-.01,0-.01,0v.03h-.01v.03h-.01v.03h-.01v.02s-.01,0-.01,0v.02s-.01,0-.01,0l-.02.05h0s-.01.03-.01.03h0s-.01.03-.01.03h0l-.04.1h0s0,0,0,0l-.03.07h0s-.03.08-.03.08h0l-.03.08,4.43-4.23Zm-.45-.18c-.1-.04-.19-.09-.28-.13.09.04.19.09.28.13h0Zm-.56-.27s.09.05.13.07l-.13-.07Zm-.33-.18c-.06-.04-.13-.07-.19-.11.06.04.12.08.19.11h0Zm-.43-.27s.08.05.12.08l-.12-.08Zm-2.53-3s-.03-.07-.04-.1c.01.03.03.07.04.1h0Zm-.11-.26l-.03-.08c-.02.05-.04.1-.06.16.02-.05.04-.1.06-.16l.03.08h0Zm-2.64,3.22c-.16.11-.32.21-.49.31.17-.1.33-.2.49-.31h0l.06-.04h0l.06-.04h0l.06-.04h0l.06-.04h0s.07-.06.11-.08h0l.05-.04h0l.05-.04h0l.05-.04h0l.05-.04h0l.05-.04h0l.05-.04h0l.05-.04h0l.05-.04h0l.05-.04h0l.05-.05h0l.05-.05h0l.05-.05.05-.05h0l.05-.05h0l.05-.05h0s.05-.05.05-.05h0l.04-.05.04-.05h0l.04-.05h0l.04-.05h0s.04-.05.04-.05l.04-.05.04-.05.04-.05h0l.04-.05h0l.04-.05.04-.05.04-.05.04-.05.04-.05.04-.05.02-.02.02-.02.02-.02h0l.02-.02.02-.02.02-.02.02-.02h0l.02-.02h0l.02-.02h0s.02-.02.02-.02h0l.02-.02.02-.02.02-.02h0l.02-.02h0v-.02s.01,0,.01,0l.02-.02v-.02s.03-.02.03-.02h0v-.02h.01v-.02h.01v-.02h.01v-.02h.01v-.02h.01v-.02h.01v-.02h.01v-.02h.01v-.02h.01v-.02s.01,0,.01,0v-.02s.01,0,.01,0v-.02h.01v-.02h.01v-.02h.01v-.03h.01v-.02h.01v-.02h.01v-.03h.01v-.03h.01v-.02h.01l.03-.05h0v-.03h.01v-.03h.01l.02-.05h0v-.03h.01v-.02s.01,0,.01,0v-.03s.01,0,.01,0l.05-.1h0c.03-.06.05-.12.08-.18l-2.55,3.14Zm-.55.34c-.06.04-.13.07-.2.11.07-.04.13-.07.2-.11h0Zm-.26.14c-.31.16-.64.31-1,.45h0c.36-.13.69-.28,1-.45h0Zm-.48.66s-.1-.04-.14-.06l.14.06Zm.28.13s-.09-.04-.14-.07l.14.07Zm.14.07s-.09-.05-.14-.07l.14.07Zm.13.07c.07.04.13.07.2.11-.06-.04-.13-.07-.2-.11h0Zm.38.22c.08.05.16.1.24.15-.08-.05-.16-.1-.24-.15h0Zm.24.15s.07.05.11.07c-.04-.02-.07-.05-.11-.07h0Zm2.54,2.94s.03.07.05.1c-.02-.03-.03-.07-.05-.1h0Zm.05.1c.03.06.05.12.08.18-.03-.06-.05-.12-.08-.18h0Zm.14.34c-.02-.05-.04-.1-.06-.16l.06.16Zm-.14-8.12c.03-.06.05-.12.08-.18l-.08.18Zm.08,7.97c.02.05.04.1.06.16l.03-.08-.09-.08Z"/>
      <g>
        <g>
          <path class="cls-12" d="m148.61,94.6c0-.58.47-1.05,1.05-1.05s1.05.47,1.05,1.05c0,3-.6,6.14-2.48,8.75-1.88,2.62-5,4.65-10.01,5.41-.57.08-1.11-.31-1.19-.89-.08-.57.31-1.11.89-1.19,4.37-.66,7.04-2.37,8.62-4.55,1.58-2.19,2.08-4.91,2.08-7.53Z"/>
          <path class="cls-12" d="m150.71,120.84c0,.58-.47,1.05-1.05,1.05s-1.05-.47-1.05-1.05c0-2.62-.51-5.34-2.08-7.53-1.57-2.19-4.25-3.9-8.62-4.55-.57-.08-.97-.62-.89-1.19.08-.57.62-.97,1.19-.89,5.01.75,8.13,2.79,10.01,5.41,1.88,2.61,2.48,5.75,2.48,8.75Z"/>
          <path class="cls-12" d="m148.61,94.6c0-.58.47-1.05,1.05-1.05s1.05.47,1.05,1.05c0,2.62.51,5.34,2.08,7.53,1.57,2.19,4.25,3.9,8.62,4.55.57.08.97.62.89,1.19-.08.57-.62.97-1.19.89-5.01-.75-8.13-2.79-10.01-5.41-1.88-2.61-2.48-5.75-2.48-8.75Z"/>
          <path class="cls-12" d="m150.71,120.84c0,.58-.47,1.05-1.05,1.05s-1.05-.47-1.05-1.05c0-3,.6-6.14,2.48-8.75,1.88-2.62,5-4.66,10.01-5.41.57-.08,1.11.31,1.19.89.08.57-.31,1.11-.89,1.19-4.37.65-7.04,2.37-8.62,4.55-1.58,2.19-2.08,4.91-2.08,7.53Z"/>
        </g>
        <path class="cls-3" d="m149.66,114.73c.36-.92.83-1.81,1.43-2.65,1.3-1.81,3.2-3.35,5.91-4.37-2.71-1.02-4.6-2.56-5.91-4.37-.6-.84-1.07-1.72-1.43-2.65-.36.92-.83,1.81-1.43,2.65-1.3,1.81-3.2,3.35-5.91,4.37,2.71,1.02,4.6,2.56,5.91,4.37.6.83,1.07,1.72,1.43,2.65Z"/>
      </g>
    </g>
  </g>
</svg>