<?xml version="1.0" encoding="UTF-8"?>
<svg id="Capa_2" data-name="Capa 2" xmlns="http://www.w3.org/2000/svg" viewBox="0 0 202.76 150.96">
  <g id="OBJECTS">
    <g>
      <path d="m92.67,81.07c-.41.21-.63.32-.86.43-1.66.88-3.32,1.77-4.99,2.62-.42.21-.64.47-.74.93-1.39,6.27-3.45,12.31-6.19,18.11-1.08,2.29-2.29,4.54-3.71,6.64-1.09,1.62-2.47,3.09-3.94,4.39-3.58,3.16-8.04,2.89-11.36-.53-1.77-1.82-2.81-4.04-3.44-6.47-.88-3.42-.92-6.9-.53-10.37.9-8.17,2.84-16.07,6.47-23.48.74-1.51,1.62-2.97,2.55-4.38.83-1.25,2.01-2.08,3.53-2.4.32-.07.67-.42.84-.74,1.01-1.8,2.23-3.43,3.91-4.67,1.88-1.39,3.95-2.19,6.32-1.95,2.99.3,5.6,2.47,6.34,5.54.46,1.9.67,3.89.79,5.85.18,3.13-.06,6.25-.56,9.35-.03.2-.04.41-.06.74.29-.12.5-.19.69-.3,2.01-1.08,4.02-2.15,6-3.28.35-.2.62-.62.82-1,1.03-2,1.99-4.05,3.06-6.03.41-.75.99-1.44,1.6-2.04.47-.47,1.07-1,1.68-1.1,1.35-.23,1.92-1.12,2.53-2.16,1.18-2,2.8-3.59,4.9-4.64,4.83-2.42,9.88-.11,11.17,5.14.89,3.61.75,7.28.49,10.95-.1,1.45-.31,2.89-.49,4.45.26-.11.47-.17.66-.27,2.6-1.42,5.2-2.84,7.77-4.3.35-.2.62-.64.78-1.02,1.15-2.91,2.34-5.82,4.06-8.44,1.16-1.76,2.47-3.43,3.87-5.01,1.3-1.46,2.98-2.44,4.92-2.9,3.4-.8,6.33.05,8.56,2.75.89,1.09,1.44,2.45,2.14,3.7.12.21.18.46.33.83,1.43-4.46,2.82-8.76,4.21-13.09-.14,0-.27-.02-.4,0-6.85,1.42-13.76,2.33-20.73,2.92-5.37.45-10.75.63-16.13.11-3.39-.33-6.46-1.51-8.87-4.03-2-2.09-3.01-4.6-2.79-7.51.32-4.3,3.62-7.78,7.9-8.31.88-.11,1.85-.03,2.7.23,1.96.6,2.73,2.55,1.77,4.36-.41.78-1,1.48-1.53,2.19-1.02,1.36-1.03,2.02.08,3.3,1.23,1.42,2.67,2.64,4.39,3.36,1.1.46,2.37.57,3.57.69,5.76.57,11.53.84,17.32.35,4.82-.41,9.54-1.32,14.17-2.71.53-.16.8-.48,1-.97,3.52-8.4,7.42-16.62,11.85-24.58,2.95-5.29,6.2-10.39,10.26-14.91,1.45-1.62,3.09-3.11,4.8-4.45,2.24-1.76,4.86-2.75,7.74-2.94,5.79-.39,9.69,3.98,8.67,9.71-.54,3.01-1.74,5.8-2.98,8.57-4.91,10.99-12.73,19.43-22.85,25.8-1.97,1.24-4.02,2.35-6.05,3.48-.57.31-.95.7-1.2,1.3-4.88,11.35-8.22,23.16-10.73,35.23-1.42,6.85-2.39,13.77-2.73,20.75-.12,2.41.04,4.84.2,7.25.12,1.87.9,3.55,2.09,5,.23.28.69.52,1.05.53,1,.03,2.02,0,3.01-.15,1.16-.17,2.12-.78,3.05-1.51,2.23-1.75,4.12-3.77,5.53-6.24.88-1.55,1.51-3.19,1.81-4.94.09-.51.12-1.03.08-1.54-.12-1.58-1.07-2.53-2.64-2.7-.79-.09-1.6-.13-2.37-.31-3.44-.82-4.6-4.19-2.33-6.91,1.95-2.34,4.61-2.94,7.48-2.46,3.76.63,6.09,2.98,7.24,6.53.78,2.43.75,4.91.21,7.39-.79,3.62-2.47,6.85-4.58,9.85-1.6,2.28-3.83,3.78-6.41,4.79-.74.29-1.48.6-2.21.93-2.59,1.16-5.29,1.73-8.1,1.21-1.04-.19-2.09-.58-3.03-1.09-5.38-2.9-8.34-7.53-9.32-13.46-.34-2.05-.41-4.15-.62-6.29-.12.23-.25.46-.37.68-1.71,3.03-3.37,6.09-5.14,9.07-1.11,1.87-2.58,3.47-4.24,4.88-2.46,2.1-5.26,2.3-8,.57-1.76-1.11-3.02-2.67-3.93-4.52-1.44-2.91-1.82-6.01-1.63-9.2.28-4.82.94-9.6,1.99-14.31.52-2.32,1.21-4.59,1.82-6.89.07-.27.15-.53.28-.98-.37.18-.59.28-.8.4-2.32,1.24-4.64,2.48-6.95,3.76-.28.16-.55.52-.62.83-1.43,6.28-3.48,12.36-6.24,18.17-1.11,2.35-2.42,4.62-3.81,6.82-1.29,2.03-2.96,3.79-5.04,5.06-3.41,2.09-6.99,1.65-9.87-1.15-1.95-1.9-3.08-4.25-3.74-6.84-.89-3.52-.85-7.09-.48-10.66.51-4.88,1.58-9.65,2.97-14.35.08-.27.16-.53.3-1.02Zm40.16,23.81c0,1.08-.07,2.17.02,3.24.08.95.3,1.89.51,2.83.12.53.47.68.94.33.47-.35,1.02-.64,1.38-1.08,1.33-1.58,2.69-3.14,3.86-4.84,2.88-4.19,4.86-8.84,6.82-13.5.46-1.1.97-2.21,1.22-3.37.88-4.06,1.66-8.15,2.45-12.23.04-.21-.12-.49-.24-.71-.29-.49-.73-.92-.92-1.45-.24-.68-.3-1.42-.42-2.14-.19-1.16-.57-2.23-1.36-3.12-.98-1.11-2.13-1.19-3.19-.17-.54.52-1.07,1.09-1.43,1.73-1.23,2.21-2.54,4.4-3.53,6.72-3.78,8.85-5.61,18.16-6.11,27.75Zm39.86-62.93c.4-.2.63-.29.84-.42,1.48-.88,2.97-1.72,4.42-2.64,6.97-4.45,12.82-10.05,17.34-16.99,2.01-3.09,3.61-6.38,4.32-10.03.26-1.34.48-2.69.06-4.04-.4-1.27-1.37-1.89-2.66-1.57-.78.2-1.62.49-2.24.97-1.3,1.02-2.59,2.11-3.69,3.35-1.3,1.47-2.43,3.11-3.58,4.72-5.84,8.16-10.37,17.06-14.62,26.11-.05.1-.08.22-.19.56Zm-102.56,41.53c-.16.45-.3.72-.36,1.01-.8,3.5-1.7,6.99-2.35,10.52-.7,3.76-.72,7.58-.21,11.38.15,1.08.49,2.15.84,3.19.28.84.6,1,1.39.67.8-.34,1.64-.74,2.27-1.33,1.76-1.65,3.06-3.69,4.2-5.8,2.85-5.3,4.88-10.93,6.73-16.63.04-.14.03-.29.04-.49-4.64,1.55-8.88,1.25-12.56-2.5Zm32.45,0c-.16.45-.3.72-.36,1.01-.8,3.5-1.7,6.99-2.35,10.52-.7,3.76-.72,7.58-.2,11.38.15,1.11.54,2.18.86,3.26.19.65.64.85,1.32.65.9-.27,1.69-.67,2.35-1.35,1.69-1.73,3.03-3.71,4.17-5.83,2.85-5.3,4.88-10.93,6.73-16.63.04-.14.03-.29.04-.49-4.64,1.55-8.88,1.25-12.55-2.5Zm-17.58-9.88c-.02-1.77-.09-3.52-.71-5.21-.64-1.74-1.2-1.91-2.63-.77-2.39,1.91-3.33,4.6-3.84,7.47-.3,1.67-.21,3.37.2,5.04.27,1.12.97,1.87,2.14,1.93,1.09.05,2.19-.04,3.28-.14.2-.02.5-.34.55-.57.59-2.55,1-5.12,1.01-7.74Zm32.45,0c-.02-1.79-.09-3.57-.74-5.28-.63-1.66-1.18-1.83-2.55-.75-2.43,1.91-3.38,4.62-3.9,7.51-.3,1.67-.21,3.37.2,5.04.27,1.12.97,1.87,2.14,1.92,1.09.05,2.19-.04,3.28-.15.2-.02.49-.34.55-.57.59-2.55,1-5.12,1.01-7.74Z"/>
      <path d="m43.31,70.72c.43,0,.73,0,1.03,0,2.79.06,5.59.08,8.38.2.78.03,1.56.32,2.32.56.65.21,1.08.68,1.09,1.41.01.75-.41,1.3-1.1,1.46-1.32.32-2.66.58-4.01.77-2.84.41-5.69.77-8.53,1.12-.56.07-.81.31-.94.85-3.01,12.19-6.04,24.38-9.07,36.56-.17.68-.32,1.38-.59,2.03-.67,1.65-2.15,2.62-3.84,2.61-1.67-.01-3.14-1.04-3.82-2.67-.49-1.17-.52-2.4-.31-3.61.43-2.5.84-5.01,1.45-7.48,2.12-8.56,4.31-17.1,6.48-25.65.09-.34.15-.68.25-1.11-.26,0-.43-.02-.61,0-7.14,1.08-14.27,2.16-21.4,3.28-.84.13-1.67.46-2.46.81-1.69.76-3.44-.16-3.67-2.02-.19-1.5.39-2.72,1.62-3.52.79-.51,1.71-.96,2.63-1.13,3.69-.7,7.4-1.36,11.12-1.9,4.54-.66,9.09-1.19,13.64-1.77.51-.06.83-.19,1-.77,2.81-9.57,5.64-19.13,8.46-28.69.09-.31.16-.62.28-1.1-.42.17-.7.26-.96.38-7.03,3.34-14.42,5.44-22.15,6.33-2.41.28-4.85.41-7.23-.21-1.17-.31-2.33-.76-3.39-1.35-2.48-1.39-3.81-4.51-3.25-7.31.37-1.83,1.6-3.06,3.42-3.41.8-.16,1.44.12,1.66.71.21.59-.04,1.12-.75,1.57-1.38.87-1.66,1.83-1,3.33.28.63.71,1.02,1.38,1.19,1.36.36,2.71.25,4.05-.04,2.98-.65,5.87-1.6,8.59-2.94,8.18-4.05,16.33-8.15,24.43-12.33,9.56-4.93,18.78-10.53,28.56-15.06,3.15-1.46,6.37-2.82,9.6-4.09,3.71-1.45,7.58-2.23,11.57-2.27,7.96-.09,13.49,4.76,14.33,12.69.63,5.93-.84,11.41-4.18,16.32-.82,1.2-1.96,2.21-3.07,3.17-1.16.99-2.62,1.34-4.15,1.35-.87,0-1.57-.3-1.94-1.14-.32-.73-.1-1.47.6-2.15.18-.18.38-.36.51-.58,2.03-3.38,3.55-6.95,3.89-10.93.19-2.26-.16-4.39-1.35-6.37-.91-1.51-2.19-2.25-3.95-2.25-2.5,0-4.92.45-7.28,1.21-4.27,1.37-8.35,3.21-12.31,5.27-7.62,3.96-15.16,8.05-22.73,12.09-.62.33-1.23.69-1.87,1-.51.25-.77.64-.92,1.17-3.08,11.08-6.18,22.15-9.27,33.23-.09.33-.17.67-.29,1.16Z"/>
      <path d="m135.79,132.31c-16,.54-31.72,2.97-47.19,7.12-9.56,2.56-19.12,5.14-28.71,7.6-6.01,1.54-12.09,2.85-18.27,3.53-9.3,1.03-18.35.11-27.1-3.33-1.94-.77-3.94-1.4-5.86-2.23-2.29-.99-4.24-2.53-5.96-4.33-2.61-2.73-3.43-5.86-2.04-9.47.65-1.68,1.44-3.26,2.59-4.67.32-.4.53-.9.87-1.28.48-.53.96-1.17,1.58-1.45,1.53-.68,3.17-1.08,4.87-.88.73.08,1.49.32,2.13.67,2.6,1.43,2.83,4.59.5,6.43-.37.29-.83.48-1.15.8-.71.7-1.48,1.39-2.02,2.21-.95,1.45-.86,2.94-.07,4.54,1.08,2.17,2.7,3.33,5.08,3.74,5.35.94,10.72,1,16.1.47,10.06-.99,19.94-3.03,29.72-5.55,8.24-2.12,16.44-4.42,24.67-6.59,8.17-2.15,16.41-4,24.85-4.76,13.99-1.27,27.81-.33,41.39,3.44,2.91.81,5.65,1.99,7.97,3.95,2.63,2.21,4.52,4.89,4.42,8.51-.08,2.83-1.31,5.07-3.81,6.5-1.1.63-2.29.83-3.54.47-1.98-.58-2.9-2.45-2.07-4.34.34-.77.84-1.46,1.27-2.19.57-.97,1.2-1.92,1.7-2.92.6-1.18.32-2.1-.77-2.87-1.2-.85-2.49-1.49-3.94-1.82-3.76-.86-7.58-1.12-11.41-1.28-1.92-.08-3.86-.01-5.78-.01Z"/>
    </g>
  </g>
</svg>